0
SECTION
2
HEADER
9
$INSUNITS
70
4
9
$ACADVER
1
AC1014
9
$HANDSEED
5
FFFF
0
ENDSEC
0
SECTION
2
TABLES
0
TABLE
2
VPORT
5
8
100
AcDbSymbolTable
0
ENDTAB
0
TABLE
2
LTYPE
5
5
100
AcDbSymbolTable
0
LTYPE
5
14
100
AcDbSymbolTableRecord
100
AcDbLinetypeTableRecord
2
BYBLOCK
70
0
0
LTYPE
5
15
100
AcDbSymbolTableRecord
100
AcDbLinetypeTableRecord
2
BYLAYER
70
0
0
ENDTAB
0
TABLE
2
LAYER
5
2
100
AcDbSymbolTable
70
2
0
LAYER
5
50
100
AcDbSymbolTableRecord
100
AcDbLayerTableRecord
2
0
70
0
6
CONTINUOUS
0
ENDTAB
0
TABLE
2
STYLE
5
3
100
AcDbSymbolTable
70
1
0
STYLE
5
11
100
AcDbSymbolTableRecord
100
AcDbTextStyleTableRecord
2
STANDARD
70
0
0
ENDTAB
0
TABLE
2
VIEW
5
6
100
AcDbSymbolTable
70
0
0
ENDTAB
0
TABLE
2
UCS
5
7
100
AcDbSymbolTable
70
0
0
ENDTAB
0
TABLE
2
APPID
5
9
100
AcDbSymbolTable
70
2
0
APPID
5
12
100
AcDbSymbolTableRecord
100
AcDbRegAppTableRecord
2
ACAD
70
0
0
ENDTAB
0
TABLE
2
DIMSTYLE
5
A
100
AcDbSymbolTable
70
1
0
ENDTAB
0
TABLE
2
BLOCK_RECORD
5
1
100
AcDbSymbolTable
70
1
0
BLOCK_RECORD
5
1F
100
AcDbSymbolTableRecord
100
AcDbBlockTableRecord
2
*MODEL_SPACE
0
BLOCK_RECORD
5
1B
100
AcDbSymbolTableRecord
100
AcDbBlockTableRecord
2
*PAPER_SPACE
0
ENDTAB
0
ENDSEC
0
SECTION
2
BLOCKS
0
BLOCK
5
20
100
AcDbEntity
100
AcDbBlockBegin
2
*MODEL_SPACE
0
ENDBLK
5
21
100
AcDbEntity
100
AcDbBlockEnd
0
BLOCK
5
1C
100
AcDbEntity
100
AcDbBlockBegin
2
*PAPER_SPACE
0
ENDBLK
5
1D
100
AcDbEntity
100
AcDbBlockEnd
0
ENDSEC
0
SECTION
2
ENTITIES
0
CIRCLE
5
100
100
AcDbEntity
8
0
100
AcDbCircle
10
-160.96107484818148
20
-2.86011763891947
30
0
40
1.2999999999999901
210
0
220
-0
230
1
0
CIRCLE
5
101
100
AcDbEntity
8
0
100
AcDbCircle
10
-149.97
20
-120.90649999999629
30
0
40
1.3000000000000078
210
0
220
-0
230
1
0
CIRCLE
5
102
100
AcDbEntity
8
0
100
AcDbCircle
10
-80.294700000000006
20
-47.644900000000007
30
0
40
1.3000000000000078
210
0
220
-0
230
1
0
CIRCLE
5
103
100
AcDbEntity
8
0
100
AcDbCircle
10
-3.0941600000000022
20
-148.89600000000002
30
0
40
1.3
210
0
220
-0
230
1
0
CIRCLE
5
104
100
AcDbEntity
8
0
100
AcDbCircle
10
-149.97
20
-99.906500000000037
30
0
40
1.3000000000000078
210
0
220
-0
230
1
0
CIRCLE
5
105
100
AcDbEntity
8
0
100
AcDbCircle
10
-189.86720686540252
20
-57.406499999999987
30
0
40
1.2999999999999901
210
0
220
-0
230
1
0
CIRCLE
5
106
100
AcDbEntity
8
0
100
AcDbCircle
10
-115.89400000000001
20
-60.930999999999997
30
0
40
1.3000000000000078
210
0
220
-0
230
1
0
CIRCLE
5
107
100
AcDbEntity
8
0
100
AcDbCircle
10
-148.97
20
-148.89600000000004
30
0
40
1.3000000000000078
210
0
220
-0
230
1
0
CIRCLE
5
108
100
AcDbEntity
8
0
100
AcDbCircle
10
-10.082266094067279
20
-60.015666094067264
30
0
40
1.2999999999999989
210
0
220
-0
230
1
0
CIRCLE
5
109
100
AcDbEntity
8
0
100
AcDbCircle
10
-80.294700000000006
20
-150.89600000000004
30
0
40
1.3000000000000078
210
0
220
-0
230
1
0
CIRCLE
5
110
100
AcDbEntity
8
0
100
AcDbCircle
10
-141.91800000000001
20
-62.430999999999997
30
0
40
1.3000000000000078
210
0
220
-0
230
1
0
CIRCLE
5
111
100
AcDbEntity
8
0
100
AcDbCircle
10
-190.86720686540249
20
-133.89600000000007
30
0
40
1.2999999999999901
210
0
220
-0
230
1
0
CIRCLE
5
112
100
AcDbEntity
8
0
100
AcDbCircle
10
-182.00000271201134
20
-68.000001013278961
30
0
40
4.1000000000000014
210
0
220
-0
230
1
0
CIRCLE
5
113
100
AcDbEntity
8
0
100
AcDbCircle
10
-65.000000968575492
20
-150.00000223517421
30
0
40
4.1000000000000014
210
0
220
-0
230
1
0
CIRCLE
5
114
100
AcDbEntity
8
0
100
AcDbCircle
10
-106.00000157952309
20
-43.000000640749931
30
0
40
4.1000000000000014
210
0
220
-0
230
1
0
CIRCLE
5
115
100
AcDbEntity
8
0
100
AcDbCircle
10
-140.00000007450581
20
-150
30
0
40
4.1000000000000014
210
0
220
-0
230
1
0
CIRCLE
5
116
100
AcDbEntity
8
0
100
AcDbCircle
10
-115.00000171363354
20
-150.00000223517418
30
0
40
4.1000000000000014
210
0
220
-0
230
1
0
CIRCLE
5
117
100
AcDbEntity
8
0
100
AcDbCircle
10
-7.0000001043081284
20
-50.00000074505806
30
0
40
4.0999999999999979
210
0
220
-0
230
1
0
LWPOLYLINE
5
118
100
AcDbEntity
8
0
100
AcDbPolyline
90
12
70
1
43
0.0
10
-191.86720686540247
20
-156.89600000000007
10
-191.86720686540247
20
-136.89600000000007
10
-187.86720686540249
20
-136.89600000000007
10
-187.86720686540249
20
-77.906499999999994
10
-152.97
20
-77.906499999999994
10
-152.97
20
-156.89600000000007
10
0.90583999999999776
20
-156.89600000000002
10
0.90583999999999776
20
-39.501199999999997
10
-87.4978889744756
20
-39.501199999999997
10
-161.05912901168085
20
2.9700384801371982
10
-193.86720686540252
20
-53.855099999999979
10
-193.86720686540247
20
-156.89600000000007
0
LWPOLYLINE
5
119
100
AcDbEntity
8
0
100
AcDbPolyline
90
20
70
1
43
0.0
10
-140.34500000000003
20
-100.995
10
-140.34500000000003
20
-101.79400000000001
10
-134.54499999999999
20
-101.79400000000001
10
-134.54499999999999
20
-100.995
10
-131.44399999999999
20
-100.995
10
-131.44399999999999
20
-101.79400000000001
10
-130.44499999999999
20
-101.79400000000001
10
-130.44499999999999
20
-115.794
10
-131.44399999999999
20
-115.794
10
-131.44399999999999
20
-116.59399999999999
10
-134.54499999999999
20
-116.59399999999999
10
-134.54499999999999
20
-115.794
10
-140.34500000000003
20
-115.794
10
-140.34500000000003
20
-116.59399999999999
10
-143.44400000000002
20
-116.59399999999999
10
-143.44400000000002
20
-115.794
10
-144.44499999999999
20
-115.794
10
-144.44499999999999
20
-101.79400000000001
10
-143.44400000000002
20
-101.79400000000001
10
-143.44400000000002
20
-100.995
0
LWPOLYLINE
5
120
100
AcDbEntity
8
0
100
AcDbPolyline
90
20
70
1
43
0.0
10
-54.245200000000004
20
-108.93799999999999
10
-54.245200000000004
20
-109.93899999999999
10
-53.444400000000002
20
-109.93899999999999
10
-53.444400000000002
20
-113.03800000000001
10
-54.245200000000004
20
-113.03800000000001
10
-54.245200000000004
20
-118.83800000000001
10
-53.444400000000002
20
-118.83800000000001
10
-53.444400000000002
20
-121.93799999999999
10
-54.245200000000004
20
-121.93799999999999
10
-54.245200000000004
20
-122.93900000000001
10
-68.244500000000002
20
-122.93900000000001
10
-68.244500000000002
20
-121.93799999999999
10
-69.043899999999994
20
-121.93799999999999
10
-69.043899999999994
20
-118.83800000000001
10
-68.244500000000002
20
-118.83800000000001
10
-68.244500000000002
20
-113.03800000000001
10
-69.043899999999994
20
-113.03800000000001
10
-69.043899999999994
20
-109.93899999999999
10
-68.244500000000002
20
-109.93899999999999
10
-68.244500000000002
20
-108.93799999999999
0
LWPOLYLINE
5
121
100
AcDbEntity
8
0
100
AcDbPolyline
90
20
70
1
43
0.0
10
-35.195099999999996
20
-104.17700000000002
10
-35.195099999999996
20
-105.17600000000002
10
-34.394500000000001
20
-105.17600000000002
10
-34.394500000000001
20
-108.277
10
-35.195099999999996
20
-108.277
10
-35.195099999999996
20
-114.07700000000003
10
-34.394500000000001
20
-114.07700000000003
10
-34.394500000000001
20
-117.17600000000002
10
-35.195099999999996
20
-117.17600000000002
10
-35.195099999999996
20
-118.176
10
-49.194500000000005
20
-118.176
10
-49.194500000000005
20
-117.17600000000002
10
-49.993899999999996
20
-117.17600000000002
10
-49.993899999999996
20
-114.07700000000003
10
-49.194500000000005
20
-114.07700000000003
10
-49.194500000000005
20
-108.277
10
-49.993899999999996
20
-108.277
10
-49.993899999999996
20
-105.17600000000002
10
-49.194500000000005
20
-105.17600000000002
10
-49.194500000000005
20
-104.17700000000002
0
LWPOLYLINE
5
122
100
AcDbEntity
8
0
100
AcDbPolyline
90
20
70
1
43
0.0
10
-54.245200000000004
20
-89.888099999999994
10
-54.245200000000004
20
-90.888599999999997
10
-53.444400000000002
20
-90.888599999999997
10
-53.444400000000002
20
-93.987800000000007
10
-54.245200000000004
20
-93.987800000000007
10
-54.245200000000004
20
-99.787800000000004
10
-53.444400000000002
20
-99.787800000000004
10
-53.444400000000002
20
-102.88800000000001
10
-54.245200000000004
20
-102.88800000000001
10
-54.245200000000004
20
-103.889
10
-68.244500000000002
20
-103.889
10
-68.244500000000002
20
-102.88800000000001
10
-69.043899999999994
20
-102.88800000000001
10
-69.043899999999994
20
-99.787800000000004
10
-68.244500000000002
20
-99.787800000000004
10
-68.244500000000002
20
-93.987800000000007
10
-69.043899999999994
20
-93.987800000000007
10
-69.043899999999994
20
-90.888599999999997
10
-68.244500000000002
20
-90.888599999999997
10
-68.244500000000002
20
-89.888099999999994
0
LWPOLYLINE
5
123
100
AcDbEntity
8
0
100
AcDbPolyline
90
20
70
1
43
0.0
10
-54.245200000000004
20
-51.7881
10
-54.245200000000004
20
-52.78860000000001
10
-53.444400000000002
20
-52.78860000000001
10
-53.444400000000002
20
-55.887799999999999
10
-54.245200000000004
20
-55.887799999999999
10
-54.245200000000004
20
-61.68780000000001
10
-53.444400000000002
20
-61.68780000000001
10
-53.444400000000002
20
-64.788300000000007
10
-54.245200000000004
20
-64.788300000000007
10
-54.245200000000004
20
-65.788799999999995
10
-68.244500000000002
20
-65.788799999999995
10
-68.244500000000002
20
-64.788300000000007
10
-69.043899999999994
20
-64.788300000000007
10
-69.043899999999994
20
-61.68780000000001
10
-68.244500000000002
20
-61.68780000000001
10
-68.244500000000002
20
-55.887799999999999
10
-69.043899999999994
20
-55.887799999999999
10
-69.043899999999994
20
-52.78860000000001
10
-68.244500000000002
20
-52.78860000000001
10
-68.244500000000002
20
-51.7881
0
LWPOLYLINE
5
124
100
AcDbEntity
8
0
100
AcDbPolyline
90
20
70
1
43
0.0
10
-11.379799999999999
20
-66.076999999999998
10
-11.379799999999999
20
-67.076099999999997
10
-10.582000000000001
20
-67.076099999999997
10
-10.582000000000001
20
-70.176699999999997
10
-11.379799999999999
20
-70.176699999999997
10
-11.379799999999999
20
-75.976699999999994
10
-10.582000000000001
20
-75.976699999999994
10
-10.582000000000001
20
-79.075800000000001
10
-11.379799999999999
20
-79.075800000000001
10
-11.379799999999999
20
-80.076300000000003
10
-25.382100000000001
20
-80.076300000000003
10
-25.382100000000001
20
-79.075800000000001
10
-26.181300000000004
20
-79.075800000000001
10
-26.181300000000004
20
-75.976699999999994
10
-25.382100000000001
20
-75.976699999999994
10
-25.382100000000001
20
-70.176699999999997
10
-26.181300000000004
20
-70.176699999999997
10
-26.181300000000004
20
-67.076099999999997
10
-25.382100000000001
20
-67.076099999999997
10
-25.382100000000001
20
-66.076999999999998
0
LWPOLYLINE
5
125
100
AcDbEntity
8
0
100
AcDbPolyline
90
20
70
1
43
0.0
10
-159.99000000000001
20
-50.331499999999998
10
-147.86500000000001
20
-57.332000000000001
10
-148.36500000000001
20
-58.197400000000002
10
-147.673
20
-58.597099999999998
10
-149.22399999999999
20
-61.282800000000002
10
-149.91499999999999
20
-60.881700000000009
10
-152.816
20
-65.905900000000003
10
-152.12299999999999
20
-66.305599999999998
10
-153.673
20
-68.990300000000005
10
-154.36500000000001
20
-68.590599999999995
10
-154.86500000000001
20
-69.4559
10
-166.99099999999999
20
-62.456800000000001
10
-166.49000000000001
20
-61.590100000000007
10
-167.18400000000003
20
-61.190399999999997
10
-165.63299999999998
20
-58.506100000000004
10
-164.94
20
-58.905799999999999
10
-162.041
20
-53.882599999999996
10
-162.73400000000004
20
-53.482900000000001
10
-161.18300000000002
20
-50.797200000000004
10
-160.49100000000004
20
-51.196899999999999
0
LWPOLYLINE
5
126
100
AcDbEntity
8
0
100
AcDbPolyline
90
60
70
1
43
0.0
10
-124.86800000000001
20
-28.058300000000003
10
-119.43899999999999
20
-31.193300000000001
10
-119.02500000000002
20
-30.479400000000002
10
-116.601
20
-31.879500000000004
10
-117.01300000000001
20
-32.593400000000003
10
-114.21600000000001
20
-34.208399999999997
10
-115.07899999999999
20
-35.702199999999998
10
-114.28200000000002
20
-36.162500000000001
10
-115.93299999999999
20
-39.020400000000002
10
-116.72800000000001
20
-38.560400000000001
10
-117.59200000000001
20
-40.054000000000009
10
-120.38800000000001
20
-38.439
10
-121.15200000000002
20
-39.7605
10
-120.63200000000002
20
-40.061100000000003
10
-120.23100000000001
20
-39.367900000000006
10
-117.54700000000001
20
-40.917999999999999
10
-117.94600000000001
20
-41.609800000000007
10
-117.08100000000002
20
-42.109999999999999
10
-124.08000000000001
20
-54.233900000000006
10
-124.94700000000002
20
-53.733700000000006
10
-125.34700000000001
20
-54.426900000000003
10
-128.03200000000001
20
-52.8782
10
-127.63100000000001
20
-52.185000000000002
10
-128.15100000000001
20
-51.884399999999999
10
-128.91399999999999
20
-53.2059
10
-126.11499999999999
20
-54.819899999999997
10
-126.97800000000001
20
-56.313600000000008
10
-126.18299999999999
20
-56.773899999999998
10
-127.83200000000001
20
-59.631800000000005
10
-128.62899999999999
20
-59.171399999999998
10
-129.49200000000002
20
-60.665399999999998
10
-132.28899999999999
20
-59.050400000000003
10
-132.70099999999999
20
-59.765500000000003
10
-135.125
20
-58.365299999999998
10
-134.71299999999999
20
-57.650199999999998
10
-140.14400000000001
20
-54.515099999999997
10
-139.28100000000001
20
-53.021400000000007
10
-140.13
20
-52.53070000000001
10
-138.47899999999998
20
-49.672899999999998
10
-137.63
20
-50.163200000000003
10
-136.76900000000001
20
-48.671000000000006
10
-132.898
20
-50.904800000000002
10
-132.13499999999999
20
-49.584699999999998
10
-132.654
20
-49.284100000000002
10
-133.05500000000001
20
-49.977300000000007
10
-135.73900000000003
20
-48.42690000000001
10
-135.34
20
-47.733999999999995
10
-136.20500000000001
20
-47.235199999999999
10
-129.20500000000001
20
-35.110999999999997
10
-128.339
20
-35.609699999999997
10
-127.94
20
-34.916699999999999
10
-125.25399999999999
20
-36.466999999999999
10
-125.655
20
-37.160200000000003
10
-125.13600000000002
20
-37.460799999999999
10
-124.37200000000003
20
-36.1389
10
-128.24299999999999
20
-33.9039
10
-127.38
20
-32.4101
10
-128.22899999999998
20
-31.920900000000003
10
-126.58000000000001
20
-29.062800000000003
10
-125.73100000000002
20
-29.552
0
LWPOLYLINE
5
127
100
AcDbEntity
8
0
100
AcDbPolyline
90
20
70
1
43
0.0
10
-73.295199999999994
20
-130.369
10
-73.295199999999994
20
-131.37
10
-72.494399999999999
20
-131.37
10
-72.494399999999999
20
-134.47
10
-73.295199999999994
20
-134.47
10
-73.295199999999994
20
-140.27000000000001
10
-72.494399999999999
20
-140.27000000000001
10
-72.494399999999999
20
-143.37
10
-73.295199999999994
20
-143.37
10
-73.295199999999994
20
-144.37
10
-87.294499999999999
20
-144.37
10
-87.294499999999999
20
-143.37
10
-88.093900000000005
20
-143.37
10
-88.093900000000005
20
-140.27000000000001
10
-87.294499999999999
20
-140.27000000000001
10
-87.294499999999999
20
-134.47
10
-88.093900000000005
20
-134.47
10
-88.093900000000005
20
-131.37
10
-87.294499999999999
20
-131.37
10
-87.294499999999999
20
-130.369
0
LWPOLYLINE
5
128
100
AcDbEntity
8
0
100
AcDbPolyline
90
20
70
1
43
0.0
10
-111.395
20
-125.60700000000003
10
-111.395
20
-126.60700000000003
10
-110.59399999999999
20
-126.60700000000003
10
-110.59399999999999
20
-129.708
10
-111.395
20
-129.708
10
-111.395
20
-135.50799999999998
10
-110.59399999999999
20
-135.50799999999998
10
-110.59399999999999
20
-138.60700000000003
10
-111.395
20
-138.60700000000003
10
-111.395
20
-139.60900000000004
10
-125.39500000000001
20
-139.60900000000004
10
-125.39500000000001
20
-138.60700000000003
10
-126.194
20
-138.60700000000003
10
-126.194
20
-135.50799999999998
10
-125.39500000000001
20
-135.50799999999998
10
-125.39500000000001
20
-129.708
10
-126.194
20
-129.708
10
-126.194
20
-126.60700000000003
10
-125.39500000000001
20
-126.60700000000003
10
-125.39500000000001
20
-125.60700000000003
0
LWPOLYLINE
5
129
100
AcDbEntity
8
0
100
AcDbPolyline
90
20
70
1
43
0.0
10
-16.143700000000003
20
-47.027000000000001
10
-16.143700000000003
20
-48.026100000000007
10
-15.3431
20
-48.026100000000007
10
-15.3431
20
-51.126700000000007
10
-16.143700000000003
20
-51.126700000000007
10
-16.143700000000003
20
-56.926699999999997
10
-15.3431
20
-56.926699999999997
10
-15.3431
20
-60.025800000000004
10
-16.143700000000003
20
-60.025800000000004
10
-16.143700000000003
20
-61.026300000000006
10
-30.144600000000001
20
-61.026300000000006
10
-30.144600000000001
20
-60.025800000000004
10
-30.943800000000003
20
-60.025800000000004
10
-30.943800000000003
20
-56.926699999999997
10
-30.144600000000001
20
-56.926699999999997
10
-30.144600000000001
20
-51.126700000000007
10
-30.943800000000003
20
-51.126700000000007
10
-30.943800000000003
20
-48.026100000000007
10
-30.144600000000001
20
-48.026100000000007
10
-30.144600000000001
20
-47.027000000000001
0
LWPOLYLINE
5
130
100
AcDbEntity
8
0
100
AcDbPolyline
90
60
70
1
43
0.0
10
-141.36600000000001
20
-18.533300000000001
10
-135.93700000000001
20
-21.668300000000002
10
-135.523
20
-20.9544
10
-133.09799999999998
20
-22.354500000000002
10
-133.511
20
-23.068400000000004
10
-130.714
20
-24.683399999999999
10
-131.577
20
-26.177200000000003
10
-130.78
20
-26.637500000000003
10
-132.43000000000001
20
-29.495500000000003
10
-133.226
20
-29.035299999999999
10
-134.09
20
-30.529100000000003
10
-136.88600000000002
20
-28.914000000000005
10
-137.65000000000001
20
-30.235500000000002
10
-137.13
20
-30.535999999999998
10
-136.72899999999998
20
-29.8428
10
-134.04499999999999
20
-31.3931
10
-134.44399999999999
20
-32.084899999999998
10
-133.57900000000001
20
-32.585099999999997
10
-140.578
20
-44.7089
10
-141.44399999999999
20
-44.2087
10
-141.84399999999999
20
-44.901899999999998
10
-144.53
20
-43.353200000000001
10
-144.12900000000002
20
-42.659999999999997
10
-144.648
20
-42.359400000000001
10
-145.41200000000001
20
-43.680900000000008
10
-142.61500000000001
20
-45.294899999999998
10
-143.476
20
-46.788600000000002
10
-142.679
20
-47.248900000000006
10
-144.32900000000001
20
-50.106800000000007
10
-145.12700000000001
20
-49.6464
10
-145.989
20
-51.1404
10
-148.78700000000003
20
-49.525399999999998
10
-149.19899999999998
20
-50.240499999999997
10
-151.624
20
-48.840299999999999
10
-151.21200000000002
20
-48.1252
10
-156.64099999999999
20
-44.990099999999998
10
-155.779
20
-43.496400000000001
10
-156.62799999999999
20
-43.005699999999997
10
-154.97700000000003
20
-40.147900000000007
10
-154.12799999999999
20
-40.638199999999998
10
-153.267
20
-39.146000000000001
10
-149.39600000000002
20
-41.379800000000003
10
-148.63200000000001
20
-40.059700000000007
10
-149.15200000000002
20
-39.759099999999997
10
-149.553
20
-40.452300000000001
10
-152.23599999999999
20
-38.901899999999998
10
-151.83600000000001
20
-38.209000000000003
10
-152.703
20
-37.7102
10
-145.703
20
-25.586000000000002
10
-144.83600000000001
20
-26.084900000000001
10
-144.43600000000001
20
-25.391700000000004
10
-141.75200000000001
20
-26.942
10
-142.15299999999999
20
-27.636500000000002
10
-141.63299999999998
20
-27.935600000000001
10
-140.87
20
-26.614000000000004
10
-144.74100000000001
20
-24.378900000000002
10
-143.87799999999999
20
-22.885100000000001
10
-144.727
20
-22.395900000000001
10
-143.077
20
-19.537800000000001
10
-142.22899999999998
20
-20.027000000000005
0
LWPOLYLINE
5
131
100
AcDbEntity
8
0
100
AcDbPolyline
90
20
70
1
43
0.0
10
-130.44499999999999
20
-125.60700000000003
10
-130.44499999999999
20
-126.60700000000003
10
-129.64400000000001
20
-126.60700000000003
10
-129.64400000000001
20
-129.708
10
-130.44499999999999
20
-129.708
10
-130.44499999999999
20
-135.50799999999998
10
-129.64400000000001
20
-135.50799999999998
10
-129.64400000000001
20
-138.60700000000003
10
-130.44499999999999
20
-138.60700000000003
10
-130.44499999999999
20
-139.60900000000004
10
-144.44499999999999
20
-139.60900000000004
10
-144.44499999999999
20
-138.60700000000003
10
-145.244
20
-138.60700000000003
10
-145.244
20
-135.50799999999998
10
-144.44499999999999
20
-135.50799999999998
10
-144.44499999999999
20
-129.708
10
-145.244
20
-129.708
10
-145.244
20
-126.60700000000003
10
-144.44499999999999
20
-126.60700000000003
10
-144.44499999999999
20
-125.60700000000003
0
LWPOLYLINE
5
132
100
AcDbEntity
8
0
100
AcDbPolyline
90
20
70
1
43
0.0
10
-35.195099999999996
20
-66.076999999999998
10
-35.195099999999996
20
-67.076099999999997
10
-34.394500000000001
20
-67.076099999999997
10
-34.394500000000001
20
-70.176699999999997
10
-35.195099999999996
20
-70.176699999999997
10
-35.195099999999996
20
-75.976699999999994
10
-34.394500000000001
20
-75.976699999999994
10
-34.394500000000001
20
-79.075800000000001
10
-35.195099999999996
20
-79.075800000000001
10
-35.195099999999996
20
-80.076300000000003
10
-49.194500000000005
20
-80.076300000000003
10
-49.194500000000005
20
-79.075800000000001
10
-49.993899999999996
20
-79.075800000000001
10
-49.993899999999996
20
-75.976699999999994
10
-49.194500000000005
20
-75.976699999999994
10
-49.194500000000005
20
-70.176699999999997
10
-49.993899999999996
20
-70.176699999999997
10
-49.993899999999996
20
-67.076099999999997
10
-49.194500000000005
20
-67.076099999999997
10
-49.194500000000005
20
-66.076999999999998
0
LWPOLYLINE
5
133
100
AcDbEntity
8
0
100
AcDbPolyline
90
20
70
1
43
0.0
10
-73.295199999999994
20
-54.169400000000003
10
-73.295199999999994
20
-55.169899999999998
10
-72.494399999999999
20
-55.169899999999998
10
-72.494399999999999
20
-58.269000000000005
10
-73.295199999999994
20
-58.269000000000005
10
-73.295199999999994
20
-64.070400000000006
10
-72.494399999999999
20
-64.070400000000006
10
-72.494399999999999
20
-67.169600000000003
10
-73.295199999999994
20
-67.169600000000003
10
-73.295199999999994
20
-68.168700000000001
10
-87.294499999999999
20
-68.168700000000001
10
-87.294499999999999
20
-67.169600000000003
10
-88.093900000000005
20
-67.169600000000003
10
-88.093900000000005
20
-64.070400000000006
10
-87.294499999999999
20
-64.070400000000006
10
-87.294499999999999
20
-58.269000000000005
10
-88.093900000000005
20
-58.269000000000005
10
-88.093900000000005
20
-55.169899999999998
10
-87.294499999999999
20
-55.169899999999998
10
-87.294499999999999
20
-54.169400000000003
0
LWPOLYLINE
5
134
100
AcDbEntity
8
0
100
AcDbPolyline
90
20
70
1
43
0.0
10
-92.34520000000002
20
-89.888099999999994
10
-92.34520000000002
20
-90.888599999999997
10
-91.544399999999996
20
-90.888599999999997
10
-91.544399999999996
20
-93.987800000000007
10
-92.34520000000002
20
-93.987800000000007
10
-92.34520000000002
20
-99.787800000000004
10
-91.544399999999996
20
-99.787800000000004
10
-91.544399999999996
20
-102.88800000000001
10
-92.34520000000002
20
-102.88800000000001
10
-92.34520000000002
20
-103.889
10
-106.34500000000001
20
-103.889
10
-106.34500000000001
20
-102.88800000000001
10
-107.14399999999999
20
-102.88800000000001
10
-107.14399999999999
20
-99.787800000000004
10
-106.34500000000001
20
-99.787800000000004
10
-106.34500000000001
20
-93.987800000000007
10
-107.14399999999999
20
-93.987800000000007
10
-107.14399999999999
20
-90.888599999999997
10
-106.34500000000001
20
-90.888599999999997
10
-106.34500000000001
20
-89.888099999999994
0
LWPOLYLINE
5
135
100
AcDbEntity
8
0
100
AcDbPolyline
90
20
70
1
43
0.0
10
-111.395
20
-106.55700000000002
10
-111.395
20
-107.55700000000002
10
-110.59399999999999
20
-107.55700000000002
10
-110.59399999999999
20
-110.65799999999999
10
-111.395
20
-110.65799999999999
10
-111.395
20
-116.45800000000001
10
-110.59399999999999
20
-116.45800000000001
10
-110.59399999999999
20
-119.557
10
-111.395
20
-119.557
10
-111.395
20
-120.55799999999999
10
-125.39500000000001
20
-120.55799999999999
10
-125.39500000000001
20
-119.557
10
-126.194
20
-119.557
10
-126.194
20
-116.45800000000001
10
-125.39500000000001
20
-116.45800000000001
10
-125.39500000000001
20
-110.65799999999999
10
-126.194
20
-110.65799999999999
10
-126.194
20
-107.55700000000002
10
-125.39500000000001
20
-107.55700000000002
10
-125.39500000000001
20
-106.55700000000002
0
LWPOLYLINE
5
136
100
AcDbEntity
8
0
100
AcDbPolyline
90
20
70
1
43
0.0
10
-111.395
20
-68.456900000000019
10
-111.395
20
-69.457400000000007
10
-110.59399999999999
20
-69.457400000000007
10
-110.59399999999999
20
-72.557900000000018
10
-111.395
20
-72.557900000000018
10
-111.395
20
-78.357900000000001
10
-110.59399999999999
20
-78.357900000000001
10
-110.59399999999999
20
-81.457099999999997
10
-111.395
20
-81.457099999999997
10
-111.395
20
-82.457600000000014
10
-125.39500000000001
20
-82.457600000000014
10
-125.39500000000001
20
-81.457099999999997
10
-126.194
20
-81.457099999999997
10
-126.194
20
-78.357900000000001
10
-125.39500000000001
20
-78.357900000000001
10
-125.39500000000001
20
-72.557900000000018
10
-126.194
20
-72.557900000000018
10
-126.194
20
-69.457400000000007
10
-125.39500000000001
20
-69.457400000000007
10
-125.39500000000001
20
-68.456900000000019
0
LWPOLYLINE
5
137
100
AcDbEntity
8
0
100
AcDbPolyline
90
20
70
1
43
0.0
10
-73.295199999999994
20
-73.219399999999993
10
-73.295199999999994
20
-74.219899999999996
10
-72.494399999999999
20
-74.219899999999996
10
-72.494399999999999
20
-77.319000000000003
10
-73.295199999999994
20
-77.319000000000003
10
-73.295199999999994
20
-83.119
10
-72.494399999999999
20
-83.119
10
-72.494399999999999
20
-86.2196
10
-73.295199999999994
20
-86.2196
10
-73.295199999999994
20
-87.218700000000013
10
-87.294499999999999
20
-87.218700000000013
10
-87.294499999999999
20
-86.2196
10
-88.093900000000005
20
-86.2196
10
-88.093900000000005
20
-83.119
10
-87.294499999999999
20
-83.119
10
-87.294499999999999
20
-77.319000000000003
10
-88.093900000000005
20
-77.319000000000003
10
-88.093900000000005
20
-74.219899999999996
10
-87.294499999999999
20
-74.219899999999996
10
-87.294499999999999
20
-73.219399999999993
0
LWPOLYLINE
5
138
100
AcDbEntity
8
0
100
AcDbPolyline
90
20
70
1
43
0.0
10
-140.34500000000003
20
-72.420000000000016
10
-140.34500000000003
20
-73.219399999999993
10
-134.54499999999999
20
-73.219399999999993
10
-134.54499999999999
20
-72.420000000000016
10
-131.44399999999999
20
-72.420000000000016
10
-131.44399999999999
20
-73.219399999999993
10
-130.44499999999999
20
-73.219399999999993
10
-130.44499999999999
20
-87.218700000000013
10
-131.44399999999999
20
-87.218700000000013
10
-131.44399999999999
20
-88.019499999999994
10
-134.54499999999999
20
-88.019499999999994
10
-134.54499999999999
20
-87.218700000000013
10
-140.34500000000003
20
-87.218700000000013
10
-140.34500000000003
20
-88.019499999999994
10
-143.44400000000002
20
-88.019499999999994
10
-143.44400000000002
20
-87.218700000000013
10
-144.44499999999999
20
-87.218700000000013
10
-144.44499999999999
20
-73.219399999999993
10
-143.44400000000002
20
-73.219399999999993
10
-143.44400000000002
20
-72.420000000000016
0
LWPOLYLINE
5
139
100
AcDbEntity
8
0
100
AcDbPolyline
90
20
70
1
43
0.0
10
-54.245200000000004
20
-70.838099999999997
10
-54.245200000000004
20
-71.8386
10
-53.444400000000002
20
-71.8386
10
-53.444400000000002
20
-74.937799999999996
10
-54.245200000000004
20
-74.937799999999996
10
-54.245200000000004
20
-80.737799999999993
10
-53.444400000000002
20
-80.737799999999993
10
-53.444400000000002
20
-83.838300000000018
10
-54.245200000000004
20
-83.838300000000018
10
-54.245200000000004
20
-84.838800000000006
10
-68.244500000000002
20
-84.838800000000006
10
-68.244500000000002
20
-83.838300000000018
10
-69.043899999999994
20
-83.838300000000018
10
-69.043899999999994
20
-80.737799999999993
10
-68.244500000000002
20
-80.737799999999993
10
-68.244500000000002
20
-74.937799999999996
10
-69.043899999999994
20
-74.937799999999996
10
-69.043899999999994
20
-71.8386
10
-68.244500000000002
20
-71.8386
10
-68.244500000000002
20
-70.838099999999997
0
LWPOLYLINE
5
140
100
AcDbEntity
8
0
100
AcDbPolyline
90
20
70
1
43
0.0
10
-35.195099999999996
20
-85.12700000000001
10
-35.195099999999996
20
-86.126100000000008
10
-34.394500000000001
20
-86.126100000000008
10
-34.394500000000001
20
-89.226699999999994
10
-35.195099999999996
20
-89.226699999999994
10
-35.195099999999996
20
-95.026700000000005
10
-34.394500000000001
20
-95.026700000000005
10
-34.394500000000001
20
-98.125799999999998
10
-35.195099999999996
20
-98.125799999999998
10
-35.195099999999996
20
-99.126300000000001
10
-49.194500000000005
20
-99.126300000000001
10
-49.194500000000005
20
-98.125799999999998
10
-49.993899999999996
20
-98.125799999999998
10
-49.993899999999996
20
-95.026700000000005
10
-49.194500000000005
20
-95.026700000000005
10
-49.194500000000005
20
-89.226699999999994
10
-49.993899999999996
20
-89.226699999999994
10
-49.993899999999996
20
-86.126100000000008
10
-49.194500000000005
20
-86.126100000000008
10
-49.194500000000005
20
-85.12700000000001
0
LWPOLYLINE
5
141
100
AcDbEntity
8
0
100
AcDbPolyline
90
20
70
1
43
0.0
10
-11.379799999999999
20
-85.12700000000001
10
-11.379799999999999
20
-86.126100000000008
10
-10.582000000000001
20
-86.126100000000008
10
-10.582000000000001
20
-89.226699999999994
10
-11.379799999999999
20
-89.226699999999994
10
-11.379799999999999
20
-95.026700000000005
10
-10.582000000000001
20
-95.026700000000005
10
-10.582000000000001
20
-98.125799999999998
10
-11.379799999999999
20
-98.125799999999998
10
-11.379799999999999
20
-99.126300000000001
10
-25.382100000000001
20
-99.126300000000001
10
-25.382100000000001
20
-98.125799999999998
10
-26.181300000000004
20
-98.125799999999998
10
-26.181300000000004
20
-95.026700000000005
10
-25.382100000000001
20
-95.026700000000005
10
-25.382100000000001
20
-89.226699999999994
10
-26.181300000000004
20
-89.226699999999994
10
-26.181300000000004
20
-86.126100000000008
10
-25.382100000000001
20
-86.126100000000008
10
-25.382100000000001
20
-85.12700000000001
0
LWPOLYLINE
5
142
100
AcDbEntity
8
0
100
AcDbPolyline
90
20
70
1
43
0.0
10
-92.34520000000002
20
-70.838099999999997
10
-92.34520000000002
20
-71.8386
10
-91.544399999999996
20
-71.8386
10
-91.544399999999996
20
-74.937799999999996
10
-92.34520000000002
20
-74.937799999999996
10
-92.34520000000002
20
-80.737799999999993
10
-91.544399999999996
20
-80.737799999999993
10
-91.544399999999996
20
-83.838300000000018
10
-92.34520000000002
20
-83.838300000000018
10
-92.34520000000002
20
-84.838800000000006
10
-106.34500000000001
20
-84.838800000000006
10
-106.34500000000001
20
-83.838300000000018
10
-107.14399999999999
20
-83.838300000000018
10
-107.14399999999999
20
-80.737799999999993
10
-106.34500000000001
20
-80.737799999999993
10
-106.34500000000001
20
-74.937799999999996
10
-107.14399999999999
20
-74.937799999999996
10
-107.14399999999999
20
-71.8386
10
-106.34500000000001
20
-71.8386
10
-106.34500000000001
20
-70.838099999999997
0
LWPOLYLINE
5
143
100
AcDbEntity
8
0
100
AcDbPolyline
90
20
70
1
43
0.0
10
-73.295199999999994
20
-92.269400000000005
10
-73.295199999999994
20
-93.269900000000007
10
-72.494399999999999
20
-93.269900000000007
10
-72.494399999999999
20
-96.369
10
-73.295199999999994
20
-96.369
10
-73.295199999999994
20
-102.16900000000001
10
-72.494399999999999
20
-102.16900000000001
10
-72.494399999999999
20
-105.27000000000001
10
-73.295199999999994
20
-105.27000000000001
10
-73.295199999999994
20
-106.26899999999999
10
-87.294499999999999
20
-106.26899999999999
10
-87.294499999999999
20
-105.27000000000001
10
-88.093900000000005
20
-105.27000000000001
10
-88.093900000000005
20
-102.16900000000001
10
-87.294499999999999
20
-102.16900000000001
10
-87.294499999999999
20
-96.369
10
-88.093900000000005
20
-96.369
10
-88.093900000000005
20
-93.269900000000007
10
-87.294499999999999
20
-93.269900000000007
10
-87.294499999999999
20
-92.269400000000005
0
LWPOLYLINE
5
144
100
AcDbEntity
8
0
100
AcDbPolyline
90
20
70
1
43
0.0
10
-11.379799999999999
20
-123.227
10
-11.379799999999999
20
-124.22600000000001
10
-10.582000000000001
20
-124.22600000000001
10
-10.582000000000001
20
-127.32700000000001
10
-11.379799999999999
20
-127.32700000000001
10
-11.379799999999999
20
-133.12700000000001
10
-10.582000000000001
20
-133.12700000000001
10
-10.582000000000001
20
-136.226
10
-11.379799999999999
20
-136.226
10
-11.379799999999999
20
-137.226
10
-25.382100000000001
20
-137.226
10
-25.382100000000001
20
-136.226
10
-26.181300000000004
20
-136.226
10
-26.181300000000004
20
-133.12700000000001
10
-25.382100000000001
20
-133.12700000000001
10
-25.382100000000001
20
-127.32700000000001
10
-26.181300000000004
20
-127.32700000000001
10
-26.181300000000004
20
-124.22600000000001
10
-25.382100000000001
20
-124.22600000000001
10
-25.382100000000001
20
-123.227
0
LWPOLYLINE
5
145
100
AcDbEntity
8
0
100
AcDbPolyline
90
20
70
1
43
0.0
10
-54.245200000000004
20
-127.988
10
-54.245200000000004
20
-128.989
10
-53.444400000000002
20
-128.989
10
-53.444400000000002
20
-132.08799999999999
10
-54.245200000000004
20
-132.08799999999999
10
-54.245200000000004
20
-137.88800000000003
10
-53.444400000000002
20
-137.88800000000003
10
-53.444400000000002
20
-140.988
10
-54.245200000000004
20
-140.988
10
-54.245200000000004
20
-141.98900000000003
10
-68.244500000000002
20
-141.98900000000003
10
-68.244500000000002
20
-140.988
10
-69.043899999999994
20
-140.988
10
-69.043899999999994
20
-137.88800000000003
10
-68.244500000000002
20
-137.88800000000003
10
-68.244500000000002
20
-132.08799999999999
10
-69.043899999999994
20
-132.08799999999999
10
-69.043899999999994
20
-128.989
10
-68.244500000000002
20
-128.989
10
-68.244500000000002
20
-127.988
0
LWPOLYLINE
5
146
100
AcDbEntity
8
0
100
AcDbPolyline
90
20
70
1
43
0.0
10
-35.193700000000007
20
-47.027000000000001
10
-35.193700000000007
20
-48.026100000000007
10
-34.394500000000001
20
-48.026100000000007
10
-34.394500000000001
20
-51.126700000000007
10
-35.193700000000007
20
-51.126700000000007
10
-35.193700000000007
20
-56.926699999999997
10
-34.394500000000001
20
-56.926699999999997
10
-34.394500000000001
20
-60.025800000000004
10
-35.193700000000007
20
-60.025800000000004
10
-35.193700000000007
20
-61.026300000000006
10
-49.193100000000001
20
-61.026300000000006
10
-49.193100000000001
20
-60.025800000000004
10
-49.993899999999996
20
-60.025800000000004
10
-49.993899999999996
20
-56.926699999999997
10
-49.193100000000001
20
-56.926699999999997
10
-49.193100000000001
20
-51.126700000000007
10
-49.993899999999996
20
-51.126700000000007
10
-49.993899999999996
20
-48.026100000000007
10
-49.193100000000001
20
-48.026100000000007
10
-49.193100000000001
20
-47.027000000000001
0
LWPOLYLINE
5
147
100
AcDbEntity
8
0
100
AcDbPolyline
90
20
70
1
43
0.0
10
-92.34520000000002
20
-127.988
10
-92.34520000000002
20
-128.989
10
-91.544399999999996
20
-128.989
10
-91.544399999999996
20
-132.08799999999999
10
-92.34520000000002
20
-132.08799999999999
10
-92.34520000000002
20
-137.88800000000003
10
-91.544399999999996
20
-137.88800000000003
10
-91.544399999999996
20
-140.988
10
-92.34520000000002
20
-140.988
10
-92.34520000000002
20
-141.98900000000003
10
-106.34500000000001
20
-141.98900000000003
10
-106.34500000000001
20
-140.988
10
-107.14399999999999
20
-140.988
10
-107.14399999999999
20
-137.88800000000003
10
-106.34500000000001
20
-137.88800000000003
10
-106.34500000000001
20
-132.08799999999999
10
-107.14399999999999
20
-132.08799999999999
10
-107.14399999999999
20
-128.989
10
-106.34500000000001
20
-128.989
10
-106.34500000000001
20
-127.988
0
LWPOLYLINE
5
148
100
AcDbEntity
8
0
100
AcDbPolyline
90
20
70
1
43
0.0
10
-176.488
20
-40.8065
10
-164.36400000000003
20
-47.806999999999995
10
-164.863
20
-48.67240000000001
10
-164.16999999999999
20
-49.072099999999999
10
-165.72
20
-51.757800000000003
10
-166.41299999999998
20
-51.356700000000004
10
-169.31400000000002
20
-56.380899999999997
10
-168.62099999999998
20
-56.780600000000007
10
-170.16999999999999
20
-59.465299999999999
10
-170.863
20
-59.065600000000003
10
-171.36300000000003
20
-59.930900000000008
10
-183.489
20
-52.931800000000003
10
-182.988
20
-52.065100000000008
10
-183.68000000000001
20
-51.665400000000005
10
-182.13099999999997
20
-48.981099999999998
10
-181.43799999999999
20
-49.380800000000001
10
-178.53900000000004
20
-44.357600000000005
10
-179.23100000000002
20
-43.957900000000009
10
-177.68000000000001
20
-41.272200000000005
10
-176.98800000000003
20
-41.671900000000008
0
LWPOLYLINE
5
149
100
AcDbEntity
8
0
100
AcDbPolyline
90
20
70
1
43
0.0
10
-166.96300000000002
20
-24.308599999999998
10
-154.839
20
-31.309000000000005
10
-155.33799999999999
20
-32.174399999999999
10
-154.64500000000001
20
-32.574100000000001
10
-156.19499999999999
20
-35.259900000000002
10
-156.88800000000001
20
-34.858899999999998
10
-159.78899999999999
20
-39.881900000000002
10
-159.096
20
-40.283000000000008
10
-160.64500000000004
20
-42.967300000000002
10
-161.33800000000002
20
-42.567599999999999
10
-161.83800000000002
20
-43.432899999999997
10
-173.96400000000003
20
-36.433799999999998
10
-173.46299999999999
20
-35.567100000000011
10
-174.15500000000003
20
-35.167500000000004
10
-172.60599999999999
20
-32.481700000000004
10
-171.91299999999998
20
-32.8827
10
-169.01400000000001
20
-27.859800000000003
10
-169.70600000000002
20
-27.4588
10
-168.155
20
-24.7744
10
-167.46300000000002
20
-25.174000000000003
0
LWPOLYLINE
5
150
100
AcDbEntity
8
0
100
AcDbPolyline
90
20
70
1
43
0.0
10
-35.195099999999996
20
-123.227
10
-35.195099999999996
20
-124.22600000000001
10
-34.394500000000001
20
-124.22600000000001
10
-34.394500000000001
20
-127.32700000000001
10
-35.195099999999996
20
-127.32700000000001
10
-35.195099999999996
20
-133.12700000000001
10
-34.394500000000001
20
-133.12700000000001
10
-34.394500000000001
20
-136.226
10
-35.195099999999996
20
-136.226
10
-35.195099999999996
20
-137.226
10
-49.194500000000005
20
-137.226
10
-49.194500000000005
20
-136.226
10
-49.993899999999996
20
-136.226
10
-49.993899999999996
20
-133.12700000000001
10
-49.194500000000005
20
-133.12700000000001
10
-49.194500000000005
20
-127.32700000000001
10
-49.993899999999996
20
-127.32700000000001
10
-49.993899999999996
20
-124.22600000000001
10
-49.194500000000005
20
-124.22600000000001
10
-49.194500000000005
20
-123.227
0
LWPOLYLINE
5
151
100
AcDbEntity
8
0
100
AcDbPolyline
90
20
70
1
43
0.0
10
-157.43799999999999
20
-7.8107100000000003
10
-145.31399999999999
20
-14.811199999999999
10
-145.81299999999999
20
-15.677900000000001
10
-145.12
20
-16.0776
10
-146.66999999999999
20
-18.762
10
-147.363
20
-18.361000000000001
10
-150.26400000000001
20
-23.383900000000001
10
-149.571
20
-23.7849
10
-151.12
20
-26.469400000000004
10
-151.81299999999999
20
-26.069700000000005
10
-152.31299999999999
20
-26.935099999999998
10
-164.43900000000002
20
-19.9361
10
-163.93799999999999
20
-19.069299999999998
10
-164.63
20
-18.669699999999999
10
-163.08100000000002
20
-15.983900000000002
10
-162.38800000000001
20
-16.384900000000002
10
-159.48900000000003
20
-11.3619
10
-160.18100000000001
20
-10.960900000000001
10
-158.63
20
-8.2778600000000004
10
-157.93799999999999
20
-8.6775199999999995
0
LWPOLYLINE
5
152
100
AcDbEntity
8
0
100
AcDbPolyline
90
20
70
1
43
0.0
10
-11.379799999999999
20
-104.17700000000002
10
-11.379799999999999
20
-105.17600000000002
10
-10.582000000000001
20
-105.17600000000002
10
-10.582000000000001
20
-108.277
10
-11.379799999999999
20
-108.277
10
-11.379799999999999
20
-114.07700000000003
10
-10.582000000000001
20
-114.07700000000003
10
-10.582000000000001
20
-117.17600000000002
10
-11.379799999999999
20
-117.17600000000002
10
-11.379799999999999
20
-118.176
10
-25.382100000000001
20
-118.176
10
-25.382100000000001
20
-117.17600000000002
10
-26.181300000000004
20
-117.17600000000002
10
-26.181300000000004
20
-114.07700000000003
10
-25.382100000000001
20
-114.07700000000003
10
-25.382100000000001
20
-108.277
10
-26.181300000000004
20
-108.277
10
-26.181300000000004
20
-105.17600000000002
10
-25.382100000000001
20
-105.17600000000002
10
-25.382100000000001
20
-104.17700000000002
0
LWPOLYLINE
5
153
100
AcDbEntity
8
0
100
AcDbPolyline
90
20
70
1
43
0.0
10
-111.395
20
-87.506900000000002
10
-111.395
20
-88.507400000000004
10
-110.59399999999999
20
-88.507400000000004
10
-110.59399999999999
20
-91.607900000000001
10
-111.395
20
-91.607900000000001
10
-111.395
20
-97.407900000000012
10
-110.59399999999999
20
-97.407900000000012
10
-110.59399999999999
20
-100.50700000000001
10
-111.395
20
-100.50700000000001
10
-111.395
20
-101.50800000000001
10
-125.39500000000001
20
-101.50800000000001
10
-125.39500000000001
20
-100.50700000000001
10
-126.194
20
-100.50700000000001
10
-126.194
20
-97.407900000000012
10
-125.39500000000001
20
-97.407900000000012
10
-125.39500000000001
20
-91.607900000000001
10
-126.194
20
-91.607900000000001
10
-126.194
20
-88.507400000000004
10
-125.39500000000001
20
-88.507400000000004
10
-125.39500000000001
20
-87.506900000000002
0
LWPOLYLINE
5
154
100
AcDbEntity
8
0
100
AcDbPolyline
90
20
70
1
43
0.0
10
-92.34520000000002
20
-108.93799999999999
10
-92.34520000000002
20
-109.93899999999999
10
-91.544399999999996
20
-109.93899999999999
10
-91.544399999999996
20
-113.03800000000001
10
-92.34520000000002
20
-113.03800000000001
10
-92.34520000000002
20
-118.83800000000001
10
-91.544399999999996
20
-118.83800000000001
10
-91.544399999999996
20
-121.93799999999999
10
-92.34520000000002
20
-121.93799999999999
10
-92.34520000000002
20
-122.93900000000001
10
-106.34500000000001
20
-122.93900000000001
10
-106.34500000000001
20
-121.93799999999999
10
-107.14399999999999
20
-121.93799999999999
10
-107.14399999999999
20
-118.83800000000001
10
-106.34500000000001
20
-118.83800000000001
10
-106.34500000000001
20
-113.03800000000001
10
-107.14399999999999
20
-113.03800000000001
10
-107.14399999999999
20
-109.93899999999999
10
-106.34500000000001
20
-109.93899999999999
10
-106.34500000000001
20
-108.93799999999999
0
LWPOLYLINE
5
155
100
AcDbEntity
8
0
100
AcDbPolyline
90
20
70
1
43
0.0
10
-73.295199999999994
20
-111.31900000000002
10
-73.295199999999994
20
-112.31999999999999
10
-72.494399999999999
20
-112.31999999999999
10
-72.494399999999999
20
-115.419
10
-73.295199999999994
20
-115.419
10
-73.295199999999994
20
-121.21899999999999
10
-72.494399999999999
20
-121.21899999999999
10
-72.494399999999999
20
-124.32000000000001
10
-73.295199999999994
20
-124.32000000000001
10
-73.295199999999994
20
-125.319
10
-87.294499999999999
20
-125.319
10
-87.294499999999999
20
-124.32000000000001
10
-88.093900000000005
20
-124.32000000000001
10
-88.093900000000005
20
-121.21899999999999
10
-87.294499999999999
20
-121.21899999999999
10
-87.294499999999999
20
-115.419
10
-88.093900000000005
20
-115.419
10
-88.093900000000005
20
-112.31999999999999
10
-87.294499999999999
20
-112.31999999999999
10
-87.294499999999999
20
-111.31900000000002
0
LWPOLYLINE
5
156
100
AcDbEntity
8
0
100
AcDbPolyline
90
20
70
1
43
0.0
10
-92.34520000000002
20
-51.7881
10
-92.34520000000002
20
-52.78860000000001
10
-91.544399999999996
20
-52.78860000000001
10
-91.544399999999996
20
-55.887799999999999
10
-92.34520000000002
20
-55.887799999999999
10
-92.34520000000002
20
-61.68780000000001
10
-91.544399999999996
20
-61.68780000000001
10
-91.544399999999996
20
-64.788300000000007
10
-92.34520000000002
20
-64.788300000000007
10
-92.34520000000002
20
-65.788799999999995
10
-106.34500000000001
20
-65.788799999999995
10
-106.34500000000001
20
-64.788300000000007
10
-107.14399999999999
20
-64.788300000000007
10
-107.14399999999999
20
-61.68780000000001
10
-106.34500000000001
20
-61.68780000000001
10
-106.34500000000001
20
-55.887799999999999
10
-107.14399999999999
20
-55.887799999999999
10
-107.14399999999999
20
-52.78860000000001
10
-106.34500000000001
20
-52.78860000000001
10
-106.34500000000001
20
-51.7881
0
CIRCLE
5
157
100
AcDbEntity
8
0
100
AcDbCircle
10
-160.96107484818148
20
-2.86011763891947
30
0
40
1.2999999999999901
210
0
220
0
230
1
0
CIRCLE
5
158
100
AcDbEntity
8
0
100
AcDbCircle
10
-149.97
20
-120.90649999999629
30
0
40
1.3000000000000078
210
0
220
0
230
1
0
CIRCLE
5
159
100
AcDbEntity
8
0
100
AcDbCircle
10
-80.294700000000006
20
-47.644900000000007
30
0
40
1.3000000000000078
210
0
220
0
230
1
0
CIRCLE
5
160
100
AcDbEntity
8
0
100
AcDbCircle
10
-3.0941600000000022
20
-148.89600000000002
30
0
40
1.3
210
0
220
0
230
1
0
CIRCLE
5
161
100
AcDbEntity
8
0
100
AcDbCircle
10
-149.97
20
-99.906500000000037
30
0
40
1.3000000000000078
210
0
220
0
230
1
0
CIRCLE
5
162
100
AcDbEntity
8
0
100
AcDbCircle
10
-189.86720686540252
20
-57.406499999999987
30
0
40
1.2999999999999901
210
0
220
0
230
1
0
CIRCLE
5
163
100
AcDbEntity
8
0
100
AcDbCircle
10
-115.89400000000001
20
-60.930999999999997
30
0
40
1.3000000000000078
210
0
220
0
230
1
0
CIRCLE
5
164
100
AcDbEntity
8
0
100
AcDbCircle
10
-148.97
20
-148.89600000000004
30
0
40
1.3000000000000078
210
0
220
0
230
1
0
CIRCLE
5
165
100
AcDbEntity
8
0
100
AcDbCircle
10
-10.082266094067279
20
-60.015666094067264
30
0
40
1.2999999999999989
210
0
220
0
230
1
0
CIRCLE
5
166
100
AcDbEntity
8
0
100
AcDbCircle
10
-80.294700000000006
20
-150.89600000000004
30
0
40
1.3000000000000078
210
0
220
0
230
1
0
CIRCLE
5
167
100
AcDbEntity
8
0
100
AcDbCircle
10
-141.91800000000001
20
-62.430999999999997
30
0
40
1.3000000000000078
210
0
220
0
230
1
0
CIRCLE
5
168
100
AcDbEntity
8
0
100
AcDbCircle
10
-190.86720686540249
20
-133.89600000000007
30
0
40
1.2999999999999901
210
0
220
0
230
1
0
CIRCLE
5
169
100
AcDbEntity
8
0
100
AcDbCircle
10
-182.00000271201134
20
-68.000001013278961
30
0
40
4.1000000000000014
210
0
220
0
230
1
0
CIRCLE
5
170
100
AcDbEntity
8
0
100
AcDbCircle
10
-65.000000968575492
20
-150.00000223517421
30
0
40
4.1000000000000014
210
0
220
0
230
1
0
CIRCLE
5
171
100
AcDbEntity
8
0
100
AcDbCircle
10
-106.00000157952309
20
-43.000000640749931
30
0
40
4.1000000000000014
210
0
220
0
230
1
0
CIRCLE
5
172
100
AcDbEntity
8
0
100
AcDbCircle
10
-140.00000007450581
20
-150
30
0
40
4.1000000000000014
210
0
220
0
230
1
0
CIRCLE
5
173
100
AcDbEntity
8
0
100
AcDbCircle
10
-115.00000171363354
20
-150.00000223517418
30
0
40
4.1000000000000014
210
0
220
0
230
1
0
CIRCLE
5
174
100
AcDbEntity
8
0
100
AcDbCircle
10
-7.0000001043081284
20
-50.00000074505806
30
0
40
4.0999999999999979
210
0
220
0
230
1
0
LWPOLYLINE
5
175
100
AcDbEntity
8
0
100
AcDbPolyline
90
12
70
1
43
0.0
10
-152.97
20
-77.906499999999994
10
-187.86720686540249
20
-77.906499999999994
10
-187.86720686540249
20
-136.89600000000007
10
-191.86720686540247
20
-136.89600000000007
10
-191.86720686540247
20
-156.89600000000007
10
-193.86720686540247
20
-156.89600000000007
10
-193.86720686540252
20
-53.855099999999979
10
-161.05912901168085
20
2.9700384801372071
10
-87.497888974475615
20
-39.501200000000019
10
0.90583999999999776
20
-39.501199999999997
10
0.90583999999999876
20
-156.89600000000002
10
-152.97
20
-156.89600000000007
0
LWPOLYLINE
5
176
100
AcDbEntity
8
0
100
AcDbPolyline
90
20
70
1
43
0.0
10
-92.345200000000034
20
-52.78860000000001
10
-92.345200000000034
20
-51.7881
10
-106.34500000000003
20
-51.7881
10
-106.34500000000001
20
-52.78860000000001
10
-107.14399999999998
20
-52.78860000000001
10
-107.14399999999999
20
-55.887799999999999
10
-106.34500000000003
20
-55.887799999999999
10
-106.34500000000001
20
-61.68780000000001
10
-107.14399999999998
20
-61.68780000000001
10
-107.14399999999999
20
-64.788300000000007
10
-106.34500000000003
20
-64.788300000000007
10
-106.34500000000001
20
-65.788799999999995
10
-92.345200000000034
20
-65.788799999999995
10
-92.34520000000002
20
-64.788300000000007
10
-91.54440000000001
20
-64.788300000000007
10
-91.544399999999996
20
-61.68780000000001
10
-92.345200000000034
20
-61.68780000000001
10
-92.34520000000002
20
-55.887799999999999
10
-91.54440000000001
20
-55.887799999999999
10
-91.544399999999996
20
-52.78860000000001
0
LWPOLYLINE
5
177
100
AcDbEntity
8
0
100
AcDbPolyline
90
20
70
1
43
0.0
10
-73.295199999999994
20
-112.31999999999999
10
-73.295199999999994
20
-111.31900000000002
10
-87.294499999999999
20
-111.31900000000002
10
-87.294499999999999
20
-112.31999999999999
10
-88.093900000000005
20
-112.31999999999999
10
-88.093900000000005
20
-115.419
10
-87.294499999999999
20
-115.419
10
-87.294499999999999
20
-121.21899999999999
10
-88.093900000000005
20
-121.21899999999999
10
-88.093900000000005
20
-124.32000000000001
10
-87.294499999999999
20
-124.32000000000001
10
-87.294499999999999
20
-125.319
10
-73.295199999999994
20
-125.319
10
-73.295199999999994
20
-124.32000000000001
10
-72.494399999999999
20
-124.32000000000001
10
-72.494399999999999
20
-121.21899999999999
10
-73.295199999999994
20
-121.21899999999999
10
-73.295199999999994
20
-115.419
10
-72.494399999999999
20
-115.419
10
-72.494399999999999
20
-112.31999999999999
0
LWPOLYLINE
5
178
100
AcDbEntity
8
0
100
AcDbPolyline
90
20
70
1
43
0.0
10
-92.345200000000034
20
-109.93899999999999
10
-92.345200000000034
20
-108.93799999999999
10
-106.34500000000003
20
-108.93799999999999
10
-106.34500000000001
20
-109.93899999999999
10
-107.14399999999998
20
-109.93899999999999
10
-107.14399999999999
20
-113.03800000000001
10
-106.34500000000003
20
-113.03800000000001
10
-106.34500000000001
20
-118.83800000000001
10
-107.14399999999998
20
-118.83800000000001
10
-107.14399999999999
20
-121.93799999999999
10
-106.34500000000003
20
-121.93799999999999
10
-106.34500000000001
20
-122.93900000000001
10
-92.345200000000034
20
-122.93900000000001
10
-92.34520000000002
20
-121.93799999999999
10
-91.54440000000001
20
-121.93799999999999
10
-91.544399999999996
20
-118.83800000000001
10
-92.345200000000034
20
-118.83800000000001
10
-92.34520000000002
20
-113.03800000000001
10
-91.54440000000001
20
-113.03800000000001
10
-91.544399999999996
20
-109.93899999999999
0
LWPOLYLINE
5
179
100
AcDbEntity
8
0
100
AcDbPolyline
90
20
70
1
43
0.0
10
-111.39499999999998
20
-88.507400000000004
10
-111.39499999999998
20
-87.506900000000002
10
-125.39500000000001
20
-87.506900000000002
10
-125.39500000000001
20
-88.507400000000004
10
-126.19399999999999
20
-88.507400000000004
10
-126.194
20
-91.607900000000001
10
-125.39500000000001
20
-91.607900000000001
10
-125.39500000000001
20
-97.407900000000012
10
-126.19399999999999
20
-97.407900000000012
10
-126.194
20
-100.50700000000001
10
-125.39500000000001
20
-100.50700000000001
10
-125.39500000000001
20
-101.50800000000001
10
-111.39499999999998
20
-101.50800000000001
10
-111.395
20
-100.50700000000001
10
-110.59399999999999
20
-100.50700000000001
10
-110.59399999999999
20
-97.407900000000012
10
-111.39499999999998
20
-97.407900000000012
10
-111.395
20
-91.607900000000001
10
-110.59399999999999
20
-91.607900000000001
10
-110.59399999999999
20
-88.507400000000004
0
LWPOLYLINE
5
180
100
AcDbEntity
8
0
100
AcDbPolyline
90
20
70
1
43
0.0
10
-11.379800000000007
20
-105.17600000000002
10
-11.379800000000007
20
-104.17700000000002
10
-25.382099999999998
20
-104.17700000000002
10
-25.382100000000001
20
-105.17600000000002
10
-26.181300000000007
20
-105.17600000000002
10
-26.181300000000004
20
-108.277
10
-25.382099999999998
20
-108.277
10
-25.382100000000001
20
-114.07700000000003
10
-26.181300000000007
20
-114.07700000000003
10
-26.181300000000004
20
-117.17600000000002
10
-25.382099999999998
20
-117.17600000000002
10
-25.382100000000001
20
-118.176
10
-11.379800000000007
20
-118.176
10
-11.379799999999998
20
-117.17600000000002
10
-10.581999999999994
20
-117.17600000000002
10
-10.582000000000003
20
-114.07700000000003
10
-11.379800000000007
20
-114.07700000000003
10
-11.379799999999998
20
-108.277
10
-10.581999999999994
20
-108.277
10
-10.582000000000003
20
-105.17600000000002
0
LWPOLYLINE
5
181
100
AcDbEntity
8
0
100
AcDbPolyline
90
20
70
1
43
0.0
10
-145.31399999999999
20
-14.811199999999991
10
-157.43799999999999
20
-7.8107099999999896
10
-157.93799999999999
20
-8.677520000000003
10
-158.63
20
-8.2778600000000004
10
-160.18100000000001
20
-10.960899999999993
10
-159.48900000000003
20
-11.361899999999988
10
-162.38800000000001
20
-16.384899999999995
10
-163.08100000000002
20
-15.983900000000002
10
-164.63
20
-18.669699999999992
10
-163.93799999999999
20
-19.069300000000005
10
-164.43900000000002
20
-19.936100000000003
10
-152.31299999999999
20
-26.935099999999998
10
-151.81299999999999
20
-26.069699999999997
10
-151.12
20
-26.469400000000004
10
-149.571
20
-23.784899999999993
10
-150.26400000000001
20
-23.383899999999997
10
-147.363
20
-18.360999999999997
10
-146.67000000000002
20
-18.761999999999993
10
-145.12
20
-16.077599999999993
10
-145.81299999999999
20
-15.677899999999998
0
LWPOLYLINE
5
182
100
AcDbEntity
8
0
100
AcDbPolyline
90
20
70
1
43
0.0
10
-35.195100000000004
20
-124.22600000000001
10
-35.195100000000004
20
-123.227
10
-49.194500000000012
20
-123.227
10
-49.194500000000005
20
-124.22600000000001
10
-49.993899999999996
20
-124.22600000000001
10
-49.993899999999996
20
-127.32700000000001
10
-49.194500000000012
20
-127.32700000000001
10
-49.194500000000005
20
-133.12700000000001
10
-49.993899999999996
20
-133.12700000000001
10
-49.993899999999996
20
-136.226
10
-49.194500000000012
20
-136.226
10
-49.194500000000005
20
-137.226
10
-35.195100000000004
20
-137.226
10
-35.195099999999996
20
-136.226
10
-34.394500000000008
20
-136.226
10
-34.394500000000001
20
-133.12700000000001
10
-35.195100000000004
20
-133.12700000000001
10
-35.195099999999996
20
-127.32700000000001
10
-34.394500000000008
20
-127.32700000000001
10
-34.394500000000001
20
-124.22600000000001
0
LWPOLYLINE
5
183
100
AcDbEntity
8
0
100
AcDbPolyline
90
20
70
1
43
0.0
10
-154.839
20
-31.308999999999997
10
-166.96300000000002
20
-24.308599999999991
10
-167.46300000000002
20
-25.174000000000007
10
-168.155
20
-24.774400000000007
10
-169.70600000000002
20
-27.458800000000004
10
-169.01400000000001
20
-27.859800000000003
10
-171.91299999999998
20
-32.882699999999993
10
-172.60599999999999
20
-32.481699999999989
10
-174.15500000000003
20
-35.167500000000004
10
-173.46299999999999
20
-35.567100000000003
10
-173.96400000000003
20
-36.433799999999998
10
-161.83800000000005
20
-43.432899999999989
10
-161.33800000000002
20
-42.567599999999999
10
-160.64500000000004
20
-42.967300000000002
10
-159.096
20
-40.283000000000008
10
-159.78900000000002
20
-39.881900000000002
10
-156.88800000000001
20
-34.858900000000006
10
-156.19500000000002
20
-35.259899999999995
10
-154.64500000000001
20
-32.574100000000008
10
-155.33799999999999
20
-32.174399999999999
0
LWPOLYLINE
5
184
100
AcDbEntity
8
0
100
AcDbPolyline
90
20
70
1
43
0.0
10
-164.36400000000003
20
-47.806999999999988
10
-176.488
20
-40.806499999999993
10
-176.98800000000003
20
-41.671900000000015
10
-177.68000000000001
20
-41.272200000000005
10
-179.23100000000002
20
-43.957900000000016
10
-178.53900000000004
20
-44.357599999999991
10
-181.43799999999999
20
-49.380800000000008
10
-182.13099999999997
20
-48.981099999999991
10
-183.68000000000001
20
-51.665399999999991
10
-182.988
20
-52.065100000000001
10
-183.489
20
-52.93180000000001
10
-171.36300000000003
20
-59.930900000000015
10
-170.863
20
-59.065600000000018
10
-170.16999999999999
20
-59.465299999999999
10
-168.62099999999998
20
-56.780600000000007
10
-169.31400000000002
20
-56.380899999999997
10
-166.41299999999998
20
-51.356700000000004
10
-165.72
20
-51.757799999999996
10
-164.16999999999999
20
-49.072100000000006
10
-164.863
20
-48.67240000000001
0
LWPOLYLINE
5
185
100
AcDbEntity
8
0
100
AcDbPolyline
90
20
70
1
43
0.0
10
-92.345200000000034
20
-128.989
10
-92.345200000000034
20
-127.988
10
-106.34500000000003
20
-127.988
10
-106.34500000000001
20
-128.989
10
-107.14399999999998
20
-128.989
10
-107.14399999999999
20
-132.08799999999999
10
-106.34500000000003
20
-132.08799999999999
10
-106.34500000000001
20
-137.88800000000003
10
-107.14399999999998
20
-137.88800000000003
10
-107.14399999999999
20
-140.988
10
-106.34500000000003
20
-140.988
10
-106.34500000000001
20
-141.98900000000003
10
-92.345200000000034
20
-141.98900000000003
10
-92.34520000000002
20
-140.988
10
-91.54440000000001
20
-140.988
10
-91.544399999999996
20
-137.88800000000003
10
-92.345200000000034
20
-137.88800000000003
10
-92.34520000000002
20
-132.08799999999999
10
-91.54440000000001
20
-132.08799999999999
10
-91.544399999999996
20
-128.989
0
LWPOLYLINE
5
186
100
AcDbEntity
8
0
100
AcDbPolyline
90
20
70
1
43
0.0
10
-35.193700000000007
20
-48.026100000000007
10
-35.193700000000007
20
-47.027000000000001
10
-49.193099999999994
20
-47.027000000000001
10
-49.193100000000001
20
-48.026100000000007
10
-49.993899999999996
20
-48.026100000000007
10
-49.993899999999996
20
-51.126700000000007
10
-49.193099999999994
20
-51.126700000000007
10
-49.193100000000001
20
-56.926699999999997
10
-49.993899999999996
20
-56.926699999999997
10
-49.993899999999996
20
-60.025800000000004
10
-49.193099999999994
20
-60.025800000000004
10
-49.193100000000001
20
-61.026300000000006
10
-35.193700000000007
20
-61.026300000000006
10
-35.193700000000007
20
-60.025800000000004
10
-34.394500000000008
20
-60.025800000000004
10
-34.394500000000001
20
-56.926699999999997
10
-35.193700000000007
20
-56.926699999999997
10
-35.193700000000007
20
-51.126700000000007
10
-34.394500000000008
20
-51.126700000000007
10
-34.394500000000001
20
-48.026100000000007
0
LWPOLYLINE
5
187
100
AcDbEntity
8
0
100
AcDbPolyline
90
20
70
1
43
0.0
10
-54.245200000000011
20
-128.989
10
-54.245200000000011
20
-127.988
10
-68.244500000000002
20
-127.988
10
-68.244500000000002
20
-128.989
10
-69.043899999999994
20
-128.989
10
-69.043899999999994
20
-132.08799999999999
10
-68.244500000000002
20
-132.08799999999999
10
-68.244500000000002
20
-137.88800000000003
10
-69.043899999999994
20
-137.88800000000003
10
-69.043899999999994
20
-140.988
10
-68.244500000000002
20
-140.988
10
-68.244500000000002
20
-141.98900000000003
10
-54.245200000000011
20
-141.98900000000003
10
-54.245200000000004
20
-140.988
10
-53.444400000000002
20
-140.988
10
-53.444400000000002
20
-137.88800000000003
10
-54.245200000000011
20
-137.88800000000003
10
-54.245200000000004
20
-132.08799999999999
10
-53.444400000000002
20
-132.08799999999999
10
-53.444400000000002
20
-128.989
0
LWPOLYLINE
5
188
100
AcDbEntity
8
0
100
AcDbPolyline
90
20
70
1
43
0.0
10
-11.379800000000007
20
-124.22600000000001
10
-11.379800000000007
20
-123.227
10
-25.382099999999998
20
-123.227
10
-25.382100000000001
20
-124.22600000000001
10
-26.181300000000007
20
-124.22600000000001
10
-26.181300000000004
20
-127.32700000000001
10
-25.382099999999998
20
-127.32700000000001
10
-25.382100000000001
20
-133.12700000000001
10
-26.181300000000007
20
-133.12700000000001
10
-26.181300000000004
20
-136.226
10
-25.382099999999998
20
-136.226
10
-25.382100000000001
20
-137.226
10
-11.379800000000007
20
-137.226
10
-11.379799999999998
20
-136.226
10
-10.581999999999994
20
-136.226
10
-10.582000000000003
20
-133.12700000000001
10
-11.379800000000007
20
-133.12700000000001
10
-11.379799999999998
20
-127.32700000000001
10
-10.581999999999994
20
-127.32700000000001
10
-10.582000000000003
20
-124.22600000000001
0
LWPOLYLINE
5
189
100
AcDbEntity
8
0
100
AcDbPolyline
90
20
70
1
43
0.0
10
-73.295199999999994
20
-93.269900000000007
10
-73.295199999999994
20
-92.269400000000005
10
-87.294499999999999
20
-92.269400000000005
10
-87.294499999999999
20
-93.269900000000007
10
-88.093900000000005
20
-93.269900000000007
10
-88.093900000000005
20
-96.369
10
-87.294499999999999
20
-96.369
10
-87.294499999999999
20
-102.16900000000001
10
-88.093900000000005
20
-102.16900000000001
10
-88.093900000000005
20
-105.27000000000001
10
-87.294499999999999
20
-105.27000000000001
10
-87.294499999999999
20
-106.26899999999999
10
-73.295199999999994
20
-106.26899999999999
10
-73.295199999999994
20
-105.27000000000001
10
-72.494399999999999
20
-105.27000000000001
10
-72.494399999999999
20
-102.16900000000001
10
-73.295199999999994
20
-102.16900000000001
10
-73.295199999999994
20
-96.369
10
-72.494399999999999
20
-96.369
10
-72.494399999999999
20
-93.269900000000007
0
LWPOLYLINE
5
190
100
AcDbEntity
8
0
100
AcDbPolyline
90
20
70
1
43
0.0
10
-92.345200000000034
20
-71.8386
10
-92.345200000000034
20
-70.838099999999997
10
-106.34500000000003
20
-70.838099999999997
10
-106.34500000000001
20
-71.8386
10
-107.14399999999998
20
-71.8386
10
-107.14399999999999
20
-74.937799999999996
10
-106.34500000000003
20
-74.937799999999996
10
-106.34500000000001
20
-80.737799999999993
10
-107.14399999999998
20
-80.737799999999993
10
-107.14399999999999
20
-83.838300000000018
10
-106.34500000000003
20
-83.838300000000018
10
-106.34500000000001
20
-84.838800000000006
10
-92.345200000000034
20
-84.838800000000006
10
-92.34520000000002
20
-83.838300000000018
10
-91.54440000000001
20
-83.838300000000018
10
-91.544399999999996
20
-80.737799999999993
10
-92.345200000000034
20
-80.737799999999993
10
-92.34520000000002
20
-74.937799999999996
10
-91.54440000000001
20
-74.937799999999996
10
-91.544399999999996
20
-71.8386
0
LWPOLYLINE
5
191
100
AcDbEntity
8
0
100
AcDbPolyline
90
20
70
1
43
0.0
10
-11.379800000000007
20
-86.126100000000008
10
-11.379800000000007
20
-85.12700000000001
10
-25.382099999999998
20
-85.12700000000001
10
-25.382100000000001
20
-86.126100000000008
10
-26.181300000000007
20
-86.126100000000008
10
-26.181300000000004
20
-89.226699999999994
10
-25.382099999999998
20
-89.226699999999994
10
-25.382100000000001
20
-95.026700000000005
10
-26.181300000000007
20
-95.026700000000005
10
-26.181300000000004
20
-98.125799999999998
10
-25.382099999999998
20
-98.125799999999998
10
-25.382100000000001
20
-99.126300000000001
10
-11.379800000000007
20
-99.126300000000001
10
-11.379799999999998
20
-98.125799999999998
10
-10.581999999999994
20
-98.125799999999998
10
-10.582000000000003
20
-95.026700000000005
10
-11.379800000000007
20
-95.026700000000005
10
-11.379799999999998
20
-89.226699999999994
10
-10.581999999999994
20
-89.226699999999994
10
-10.582000000000003
20
-86.126100000000008
0
LWPOLYLINE
5
192
100
AcDbEntity
8
0
100
AcDbPolyline
90
20
70
1
43
0.0
10
-35.195100000000004
20
-86.126100000000008
10
-35.195100000000004
20
-85.12700000000001
10
-49.194500000000012
20
-85.12700000000001
10
-49.194500000000005
20
-86.126100000000008
10
-49.993899999999996
20
-86.126100000000008
10
-49.993899999999996
20
-89.226699999999994
10
-49.194500000000012
20
-89.226699999999994
10
-49.194500000000005
20
-95.026700000000005
10
-49.993899999999996
20
-95.026700000000005
10
-49.993899999999996
20
-98.125799999999998
10
-49.194500000000012
20
-98.125799999999998
10
-49.194500000000005
20
-99.126300000000001
10
-35.195100000000004
20
-99.126300000000001
10
-35.195099999999996
20
-98.125799999999998
10
-34.394500000000008
20
-98.125799999999998
10
-34.394500000000001
20
-95.026700000000005
10
-35.195100000000004
20
-95.026700000000005
10
-35.195099999999996
20
-89.226699999999994
10
-34.394500000000008
20
-89.226699999999994
10
-34.394500000000001
20
-86.126100000000008
0
LWPOLYLINE
5
193
100
AcDbEntity
8
0
100
AcDbPolyline
90
20
70
1
43
0.0
10
-54.245200000000011
20
-71.8386
10
-54.245200000000011
20
-70.838099999999997
10
-68.244500000000002
20
-70.838099999999997
10
-68.244500000000002
20
-71.8386
10
-69.043899999999994
20
-71.8386
10
-69.043899999999994
20
-74.937799999999996
10
-68.244500000000002
20
-74.937799999999996
10
-68.244500000000002
20
-80.737799999999993
10
-69.043899999999994
20
-80.737799999999993
10
-69.043899999999994
20
-83.838300000000018
10
-68.244500000000002
20
-83.838300000000018
10
-68.244500000000002
20
-84.838800000000006
10
-54.245200000000011
20
-84.838800000000006
10
-54.245200000000004
20
-83.838300000000018
10
-53.444400000000002
20
-83.838300000000018
10
-53.444400000000002
20
-80.737799999999993
10
-54.245200000000011
20
-80.737799999999993
10
-54.245200000000004
20
-74.937799999999996
10
-53.444400000000002
20
-74.937799999999996
10
-53.444400000000002
20
-71.8386
0
LWPOLYLINE
5
194
100
AcDbEntity
8
0
100
AcDbPolyline
90
20
70
1
43
0.0
10
-140.34500000000003
20
-73.219399999999993
10
-140.34500000000003
20
-72.420000000000016
10
-143.44400000000002
20
-72.420000000000016
10
-143.44400000000002
20
-73.219399999999993
10
-144.44499999999999
20
-73.219399999999993
10
-144.44499999999999
20
-87.218700000000013
10
-143.44400000000002
20
-87.218700000000013
10
-143.44400000000002
20
-88.019499999999994
10
-140.34500000000003
20
-88.019499999999994
10
-140.34500000000003
20
-87.218700000000013
10
-134.54499999999999
20
-87.218700000000013
10
-134.54499999999999
20
-88.019499999999994
10
-131.44399999999996
20
-88.019499999999994
10
-131.44399999999999
20
-87.218700000000013
10
-130.44499999999999
20
-87.218700000000013
10
-130.44499999999999
20
-73.219399999999993
10
-131.44399999999996
20
-73.219399999999993
10
-131.44399999999999
20
-72.420000000000016
10
-134.54499999999999
20
-72.420000000000016
10
-134.54499999999999
20
-73.219399999999993
0
LWPOLYLINE
5
195
100
AcDbEntity
8
0
100
AcDbPolyline
90
20
70
1
43
0.0
10
-73.295199999999994
20
-74.219899999999996
10
-73.295199999999994
20
-73.219399999999993
10
-87.294499999999999
20
-73.219399999999993
10
-87.294499999999999
20
-74.219899999999996
10
-88.093900000000005
20
-74.219899999999996
10
-88.093900000000005
20
-77.319000000000003
10
-87.294499999999999
20
-77.319000000000003
10
-87.294499999999999
20
-83.119
10
-88.093900000000005
20
-83.119
10
-88.093900000000005
20
-86.2196
10
-87.294499999999999
20
-86.2196
10
-87.294499999999999
20
-87.218700000000013
10
-73.295199999999994
20
-87.218700000000013
10
-73.295199999999994
20
-86.2196
10
-72.494399999999999
20
-86.2196
10
-72.494399999999999
20
-83.119
10
-73.295199999999994
20
-83.119
10
-73.295199999999994
20
-77.319000000000003
10
-72.494399999999999
20
-77.319000000000003
10
-72.494399999999999
20
-74.219899999999996
0
LWPOLYLINE
5
196
100
AcDbEntity
8
0
100
AcDbPolyline
90
20
70
1
43
0.0
10
-111.39499999999998
20
-69.457400000000007
10
-111.39499999999998
20
-68.456900000000019
10
-125.39500000000001
20
-68.456900000000019
10
-125.39500000000001
20
-69.457400000000007
10
-126.19399999999999
20
-69.457400000000007
10
-126.194
20
-72.557900000000018
10
-125.39500000000001
20
-72.557900000000018
10
-125.39500000000001
20
-78.357900000000001
10
-126.19399999999999
20
-78.357900000000001
10
-126.194
20
-81.457099999999997
10
-125.39500000000001
20
-81.457099999999997
10
-125.39500000000001
20
-82.457600000000014
10
-111.39499999999998
20
-82.457600000000014
10
-111.395
20
-81.457099999999997
10
-110.59399999999999
20
-81.457099999999997
10
-110.59399999999999
20
-78.357900000000001
10
-111.39499999999998
20
-78.357900000000001
10
-111.395
20
-72.557900000000018
10
-110.59399999999999
20
-72.557900000000018
10
-110.59399999999999
20
-69.457400000000007
0
LWPOLYLINE
5
197
100
AcDbEntity
8
0
100
AcDbPolyline
90
20
70
1
43
0.0
10
-111.39499999999998
20
-107.55700000000002
10
-111.39499999999998
20
-106.55700000000002
10
-125.39500000000001
20
-106.55700000000002
10
-125.39500000000001
20
-107.55700000000002
10
-126.19399999999999
20
-107.55700000000002
10
-126.194
20
-110.65799999999999
10
-125.39500000000001
20
-110.65799999999999
10
-125.39500000000001
20
-116.45800000000001
10
-126.19399999999999
20
-116.45800000000001
10
-126.194
20
-119.557
10
-125.39500000000001
20
-119.557
10
-125.39500000000001
20
-120.55799999999999
10
-111.39499999999998
20
-120.55799999999999
10
-111.395
20
-119.557
10
-110.59399999999999
20
-119.557
10
-110.59399999999999
20
-116.45800000000001
10
-111.39499999999998
20
-116.45800000000001
10
-111.395
20
-110.65799999999999
10
-110.59399999999999
20
-110.65799999999999
10
-110.59399999999999
20
-107.55700000000002
0
LWPOLYLINE
5
198
100
AcDbEntity
8
0
100
AcDbPolyline
90
20
70
1
43
0.0
10
-92.345200000000034
20
-90.888599999999997
10
-92.345200000000034
20
-89.888099999999994
10
-106.34500000000003
20
-89.888099999999994
10
-106.34500000000001
20
-90.888599999999997
10
-107.14399999999998
20
-90.888599999999997
10
-107.14399999999999
20
-93.987800000000007
10
-106.34500000000003
20
-93.987800000000007
10
-106.34500000000001
20
-99.787800000000004
10
-107.14399999999998
20
-99.787800000000004
10
-107.14399999999999
20
-102.88800000000001
10
-106.34500000000003
20
-102.88800000000001
10
-106.34500000000001
20
-103.889
10
-92.345200000000034
20
-103.889
10
-92.34520000000002
20
-102.88800000000001
10
-91.54440000000001
20
-102.88800000000001
10
-91.544399999999996
20
-99.787800000000004
10
-92.345200000000034
20
-99.787800000000004
10
-92.34520000000002
20
-93.987800000000007
10
-91.54440000000001
20
-93.987800000000007
10
-91.544399999999996
20
-90.888599999999997
0
LWPOLYLINE
5
199
100
AcDbEntity
8
0
100
AcDbPolyline
90
20
70
1
43
0.0
10
-73.295199999999994
20
-55.169899999999998
10
-73.295199999999994
20
-54.169400000000003
10
-87.294499999999999
20
-54.169400000000003
10
-87.294499999999999
20
-55.169899999999998
10
-88.093900000000005
20
-55.169899999999998
10
-88.093900000000005
20
-58.269000000000005
10
-87.294499999999999
20
-58.269000000000005
10
-87.294499999999999
20
-64.070400000000006
10
-88.093900000000005
20
-64.070400000000006
10
-88.093900000000005
20
-67.169600000000003
10
-87.294499999999999
20
-67.169600000000003
10
-87.294499999999999
20
-68.168700000000001
10
-73.295199999999994
20
-68.168700000000001
10
-73.295199999999994
20
-67.169600000000003
10
-72.494399999999999
20
-67.169600000000003
10
-72.494399999999999
20
-64.070400000000006
10
-73.295199999999994
20
-64.070400000000006
10
-73.295199999999994
20
-58.269000000000005
10
-72.494399999999999
20
-58.269000000000005
10
-72.494399999999999
20
-55.169899999999998
0
LWPOLYLINE
5
200
100
AcDbEntity
8
0
100
AcDbPolyline
90
20
70
1
43
0.0
10
-35.195100000000004
20
-67.076099999999997
10
-35.195100000000004
20
-66.076999999999998
10
-49.194500000000012
20
-66.076999999999998
10
-49.194500000000005
20
-67.076099999999997
10
-49.993899999999996
20
-67.076099999999997
10
-49.993899999999996
20
-70.176699999999997
10
-49.194500000000012
20
-70.176699999999997
10
-49.194500000000005
20
-75.976699999999994
10
-49.993899999999996
20
-75.976699999999994
10
-49.993899999999996
20
-79.075800000000001
10
-49.194500000000012
20
-79.075800000000001
10
-49.194500000000005
20
-80.076300000000003
10
-35.195100000000004
20
-80.076300000000003
10
-35.195099999999996
20
-79.075800000000001
10
-34.394500000000008
20
-79.075800000000001
10
-34.394500000000001
20
-75.976699999999994
10
-35.195100000000004
20
-75.976699999999994
10
-35.195099999999996
20
-70.176699999999997
10
-34.394500000000008
20
-70.176699999999997
10
-34.394500000000001
20
-67.076099999999997
0
LWPOLYLINE
5
201
100
AcDbEntity
8
0
100
AcDbPolyline
90
20
70
1
43
0.0
10
-130.44499999999999
20
-126.60700000000003
10
-130.44499999999999
20
-125.60700000000003
10
-144.44499999999999
20
-125.60700000000003
10
-144.44499999999999
20
-126.60700000000003
10
-145.244
20
-126.60700000000003
10
-145.244
20
-129.708
10
-144.44499999999999
20
-129.708
10
-144.44499999999999
20
-135.50799999999998
10
-145.244
20
-135.50799999999998
10
-145.244
20
-138.60700000000003
10
-144.44499999999999
20
-138.60700000000003
10
-144.44499999999999
20
-139.60900000000004
10
-130.44499999999999
20
-139.60900000000004
10
-130.44499999999999
20
-138.60700000000003
10
-129.64400000000001
20
-138.60700000000003
10
-129.64400000000001
20
-135.50799999999998
10
-130.44499999999999
20
-135.50799999999998
10
-130.44499999999999
20
-129.708
10
-129.64400000000001
20
-129.708
10
-129.64400000000001
20
-126.60700000000003
0
LWPOLYLINE
5
202
100
AcDbEntity
8
0
100
AcDbPolyline
90
60
70
1
43
0.0
10
-135.93700000000001
20
-21.668299999999991
10
-141.36600000000001
20
-18.533299999999993
10
-142.22899999999998
20
-20.026999999999994
10
-143.077
20
-19.537800000000001
10
-144.727
20
-22.395900000000005
10
-143.87799999999999
20
-22.885099999999994
10
-144.74100000000001
20
-24.378899999999994
10
-140.87000000000003
20
-26.614000000000001
10
-141.63299999999998
20
-27.935600000000001
10
-142.15299999999996
20
-27.636500000000005
10
-141.75200000000001
20
-26.941999999999993
10
-144.43600000000001
20
-25.3917
10
-144.83600000000001
20
-26.084900000000005
10
-145.703
20
-25.586000000000002
10
-152.703
20
-37.710199999999986
10
-151.83600000000001
20
-38.209000000000003
10
-152.23599999999999
20
-38.901899999999998
10
-149.553
20
-40.452300000000001
10
-149.15200000000002
20
-39.759099999999997
10
-148.63200000000001
20
-40.059700000000007
10
-149.39600000000002
20
-41.379800000000017
10
-153.26700000000002
20
-39.145999999999987
10
-154.12799999999999
20
-40.638199999999991
10
-154.97700000000003
20
-40.147900000000007
10
-156.62799999999999
20
-43.005699999999997
10
-155.77900000000002
20
-43.496399999999994
10
-156.64099999999999
20
-44.990099999999998
10
-151.21200000000002
20
-48.125199999999992
10
-151.624
20
-48.840299999999999
10
-149.19899999999998
20
-50.240499999999997
10
-148.78700000000003
20
-49.525399999999998
10
-145.989
20
-51.1404
10
-145.12700000000001
20
-49.6464
10
-144.32900000000004
20
-50.1068
10
-142.679
20
-47.248900000000006
10
-143.47600000000003
20
-46.788599999999995
10
-142.61500000000001
20
-45.294899999999991
10
-145.41200000000003
20
-43.680899999999994
10
-144.648
20
-42.359400000000001
10
-144.12900000000002
20
-42.659999999999997
10
-144.53000000000003
20
-43.353200000000001
10
-141.84399999999999
20
-44.901899999999998
10
-141.44399999999999
20
-44.2087
10
-140.578
20
-44.7089
10
-133.57900000000001
20
-32.585100000000004
10
-134.44400000000002
20
-32.08489999999999
10
-134.04499999999999
20
-31.3931
10
-136.72899999999998
20
-29.842800000000004
10
-137.13
20
-30.535999999999998
10
-137.65000000000003
20
-30.235499999999995
10
-136.88600000000002
20
-28.914000000000001
10
-134.09
20
-30.529100000000003
10
-133.226
20
-29.035299999999992
10
-132.43000000000001
20
-29.495500000000007
10
-130.78
20
-26.637500000000003
10
-131.577
20
-26.177200000000003
10
-130.714
20
-24.683400000000006
10
-133.511
20
-23.068400000000004
10
-133.09799999999998
20
-22.354499999999998
10
-135.52300000000002
20
-20.954399999999993
0
LWPOLYLINE
5
203
100
AcDbEntity
8
0
100
AcDbPolyline
90
20
70
1
43
0.0
10
-16.14370000000001
20
-48.026100000000007
10
-16.14370000000001
20
-47.027000000000001
10
-30.144599999999997
20
-47.027000000000001
10
-30.144600000000001
20
-48.026100000000007
10
-30.943800000000007
20
-48.026100000000007
10
-30.943800000000003
20
-51.126700000000007
10
-30.144599999999997
20
-51.126700000000007
10
-30.144600000000001
20
-56.926699999999997
10
-30.943800000000007
20
-56.926699999999997
10
-30.943800000000003
20
-60.025800000000004
10
-30.144599999999997
20
-60.025800000000004
10
-30.144600000000001
20
-61.026300000000006
10
-16.14370000000001
20
-61.026300000000006
10
-16.143700000000003
20
-60.025800000000004
10
-15.343099999999996
20
-60.025800000000004
10
-15.343100000000005
20
-56.926699999999997
10
-16.14370000000001
20
-56.926699999999997
10
-16.143700000000003
20
-51.126700000000007
10
-15.343099999999996
20
-51.126700000000007
10
-15.343100000000005
20
-48.026100000000007
0
LWPOLYLINE
5
204
100
AcDbEntity
8
0
100
AcDbPolyline
90
20
70
1
43
0.0
10
-111.39499999999998
20
-126.60700000000003
10
-111.39499999999998
20
-125.60700000000003
10
-125.39500000000001
20
-125.60700000000003
10
-125.39500000000001
20
-126.60700000000003
10
-126.19399999999999
20
-126.60700000000003
10
-126.194
20
-129.708
10
-125.39500000000001
20
-129.708
10
-125.39500000000001
20
-135.50799999999998
10
-126.19399999999999
20
-135.50799999999998
10
-126.194
20
-138.60700000000003
10
-125.39500000000001
20
-138.60700000000003
10
-125.39500000000001
20
-139.60900000000004
10
-111.39499999999998
20
-139.60900000000004
10
-111.395
20
-138.60700000000003
10
-110.59399999999999
20
-138.60700000000003
10
-110.59399999999999
20
-135.50799999999998
10
-111.39499999999998
20
-135.50799999999998
10
-111.395
20
-129.708
10
-110.59399999999999
20
-129.708
10
-110.59399999999999
20
-126.60700000000003
0
LWPOLYLINE
5
205
100
AcDbEntity
8
0
100
AcDbPolyline
90
20
70
1
43
0.0
10
-73.295199999999994
20
-131.37
10
-73.295199999999994
20
-130.369
10
-87.294499999999999
20
-130.369
10
-87.294499999999999
20
-131.37
10
-88.093900000000005
20
-131.37
10
-88.093900000000005
20
-134.47
10
-87.294499999999999
20
-134.47
10
-87.294499999999999
20
-140.27000000000001
10
-88.093900000000005
20
-140.27000000000001
10
-88.093900000000005
20
-143.37
10
-87.294499999999999
20
-143.37
10
-87.294499999999999
20
-144.37
10
-73.295199999999994
20
-144.37
10
-73.295199999999994
20
-143.37
10
-72.494399999999999
20
-143.37
10
-72.494399999999999
20
-140.27000000000001
10
-73.295199999999994
20
-140.27000000000001
10
-73.295199999999994
20
-134.47
10
-72.494399999999999
20
-134.47
10
-72.494399999999999
20
-131.37
0
LWPOLYLINE
5
206
100
AcDbEntity
8
0
100
AcDbPolyline
90
60
70
1
43
0.0
10
-119.43899999999999
20
-31.193299999999997
10
-124.86800000000001
20
-28.058299999999999
10
-125.73100000000002
20
-29.552000000000007
10
-126.58000000000001
20
-29.062799999999996
10
-128.22899999999998
20
-31.920900000000003
10
-127.38
20
-32.4101
10
-128.24299999999999
20
-33.903899999999993
10
-124.37200000000004
20
-36.138899999999992
10
-125.13600000000002
20
-37.460799999999999
10
-125.655
20
-37.160200000000003
10
-125.25399999999999
20
-36.466999999999992
10
-127.94
20
-34.916699999999999
10
-128.339
20
-35.609700000000004
10
-129.20500000000004
20
-35.11099999999999
10
-136.20500000000001
20
-47.235199999999999
10
-135.34
20
-47.733999999999995
10
-135.73900000000003
20
-48.426900000000003
10
-133.05500000000001
20
-49.977300000000007
10
-132.654
20
-49.284100000000002
10
-132.13499999999999
20
-49.584699999999998
10
-132.898
20
-50.904800000000002
10
-136.76900000000001
20
-48.671000000000006
10
-137.63
20
-50.163199999999996
10
-138.47899999999998
20
-49.672899999999998
10
-140.13
20
-52.53070000000001
10
-139.28100000000001
20
-53.021400000000007
10
-140.14400000000001
20
-54.515099999999997
10
-134.71299999999999
20
-57.650199999999998
10
-135.125
20
-58.365299999999991
10
-132.70099999999999
20
-59.765500000000003
10
-132.28899999999999
20
-59.050400000000003
10
-129.49200000000005
20
-60.665399999999991
10
-128.62899999999999
20
-59.171399999999991
10
-127.83200000000001
20
-59.631800000000005
10
-126.18299999999999
20
-56.77389999999999
10
-126.97800000000001
20
-56.313600000000001
10
-126.11499999999999
20
-54.81989999999999
10
-128.91399999999999
20
-53.2059
10
-128.15100000000001
20
-51.884399999999999
10
-127.63100000000001
20
-52.185000000000002
10
-128.03200000000001
20
-52.8782
10
-125.34700000000001
20
-54.426900000000003
10
-124.94700000000002
20
-53.733700000000006
10
-124.08000000000001
20
-54.233900000000006
10
-117.08100000000002
20
-42.109999999999999
10
-117.94600000000001
20
-41.609800000000007
10
-117.54700000000001
20
-40.917999999999999
10
-120.23099999999999
20
-39.367900000000006
10
-120.63200000000002
20
-40.061100000000003
10
-121.15200000000002
20
-39.7605
10
-120.38800000000001
20
-38.439000000000007
10
-117.59200000000001
20
-40.054000000000009
10
-116.72800000000001
20
-38.560400000000001
10
-115.93299999999999
20
-39.020400000000002
10
-114.28200000000002
20
-36.162500000000001
10
-115.07899999999999
20
-35.702199999999998
10
-114.21600000000001
20
-34.208399999999997
10
-117.01300000000001
20
-32.593400000000003
10
-116.601
20
-31.87949999999999
10
-119.02500000000002
20
-30.479399999999998
0
LWPOLYLINE
5
207
100
AcDbEntity
8
0
100
AcDbPolyline
90
20
70
1
43
0.0
10
-147.86500000000001
20
-57.332000000000001
10
-159.99000000000004
20
-50.331499999999991
10
-160.49100000000004
20
-51.196899999999999
10
-161.18300000000002
20
-50.797200000000004
10
-162.73400000000004
20
-53.482900000000001
10
-162.041
20
-53.882599999999996
10
-164.94
20
-58.905799999999992
10
-165.63299999999998
20
-58.506100000000004
10
-167.18400000000003
20
-61.190400000000011
10
-166.49000000000001
20
-61.590100000000014
10
-166.99099999999999
20
-62.456799999999994
10
-154.86500000000001
20
-69.4559
10
-154.36500000000001
20
-68.590599999999995
10
-153.673
20
-68.990300000000005
10
-152.12299999999999
20
-66.305599999999998
10
-152.816
20
-65.905900000000003
10
-149.91499999999999
20
-60.881700000000009
10
-149.22399999999999
20
-61.282800000000002
10
-147.673
20
-58.59709999999999
10
-148.36500000000001
20
-58.197400000000002
0
LWPOLYLINE
5
208
100
AcDbEntity
8
0
100
AcDbPolyline
90
20
70
1
43
0.0
10
-11.379800000000007
20
-67.076099999999997
10
-11.379800000000007
20
-66.076999999999998
10
-25.382099999999998
20
-66.076999999999998
10
-25.382100000000001
20
-67.076099999999997
10
-26.181300000000007
20
-67.076099999999997
10
-26.181300000000004
20
-70.176699999999997
10
-25.382099999999998
20
-70.176699999999997
10
-25.382100000000001
20
-75.976699999999994
10
-26.181300000000007
20
-75.976699999999994
10
-26.181300000000004
20
-79.075800000000001
10
-25.382099999999998
20
-79.075800000000001
10
-25.382100000000001
20
-80.076300000000003
10
-11.379800000000007
20
-80.076300000000003
10
-11.379799999999998
20
-79.075800000000001
10
-10.581999999999994
20
-79.075800000000001
10
-10.582000000000003
20
-75.976699999999994
10
-11.379800000000007
20
-75.976699999999994
10
-11.379799999999998
20
-70.176699999999997
10
-10.581999999999994
20
-70.176699999999997
10
-10.582000000000003
20
-67.076099999999997
0
LWPOLYLINE
5
209
100
AcDbEntity
8
0
100
AcDbPolyline
90
20
70
1
43
0.0
10
-54.245200000000011
20
-52.78860000000001
10
-54.245200000000011
20
-51.7881
10
-68.244500000000002
20
-51.7881
10
-68.244500000000002
20
-52.78860000000001
10
-69.043899999999994
20
-52.78860000000001
10
-69.043899999999994
20
-55.887799999999999
10
-68.244500000000002
20
-55.887799999999999
10
-68.244500000000002
20
-61.68780000000001
10
-69.043899999999994
20
-61.68780000000001
10
-69.043899999999994
20
-64.788300000000007
10
-68.244500000000002
20
-64.788300000000007
10
-68.244500000000002
20
-65.788799999999995
10
-54.245200000000011
20
-65.788799999999995
10
-54.245200000000004
20
-64.788300000000007
10
-53.444400000000002
20
-64.788300000000007
10
-53.444400000000002
20
-61.68780000000001
10
-54.245200000000011
20
-61.68780000000001
10
-54.245200000000004
20
-55.887799999999999
10
-53.444400000000002
20
-55.887799999999999
10
-53.444400000000002
20
-52.78860000000001
0
LWPOLYLINE
5
210
100
AcDbEntity
8
0
100
AcDbPolyline
90
20
70
1
43
0.0
10
-54.245200000000011
20
-90.888599999999997
10
-54.245200000000011
20
-89.888099999999994
10
-68.244500000000002
20
-89.888099999999994
10
-68.244500000000002
20
-90.888599999999997
10
-69.043899999999994
20
-90.888599999999997
10
-69.043899999999994
20
-93.987800000000007
10
-68.244500000000002
20
-93.987800000000007
10
-68.244500000000002
20
-99.787800000000004
10
-69.043899999999994
20
-99.787800000000004
10
-69.043899999999994
20
-102.88800000000001
10
-68.244500000000002
20
-102.88800000000001
10
-68.244500000000002
20
-103.889
10
-54.245200000000011
20
-103.889
10
-54.245200000000004
20
-102.88800000000001
10
-53.444400000000002
20
-102.88800000000001
10
-53.444400000000002
20
-99.787800000000004
10
-54.245200000000011
20
-99.787800000000004
10
-54.245200000000004
20
-93.987800000000007
10
-53.444400000000002
20
-93.987800000000007
10
-53.444400000000002
20
-90.888599999999997
0
LWPOLYLINE
5
211
100
AcDbEntity
8
0
100
AcDbPolyline
90
20
70
1
43
0.0
10
-35.195100000000004
20
-105.17600000000002
10
-35.195100000000004
20
-104.17700000000002
10
-49.194500000000012
20
-104.17700000000002
10
-49.194500000000005
20
-105.17600000000002
10
-49.993899999999996
20
-105.17600000000002
10
-49.993899999999996
20
-108.277
10
-49.194500000000012
20
-108.277
10
-49.194500000000005
20
-114.07700000000003
10
-49.993899999999996
20
-114.07700000000003
10
-49.993899999999996
20
-117.17600000000002
10
-49.194500000000012
20
-117.17600000000002
10
-49.194500000000005
20
-118.176
10
-35.195100000000004
20
-118.176
10
-35.195099999999996
20
-117.17600000000002
10
-34.394500000000008
20
-117.17600000000002
10
-34.394500000000001
20
-114.07700000000003
10
-35.195100000000004
20
-114.07700000000003
10
-35.195099999999996
20
-108.277
10
-34.394500000000008
20
-108.277
10
-34.394500000000001
20
-105.17600000000002
0
LWPOLYLINE
5
212
100
AcDbEntity
8
0
100
AcDbPolyline
90
20
70
1
43
0.0
10
-54.245200000000011
20
-109.93899999999999
10
-54.245200000000011
20
-108.93799999999999
10
-68.244500000000002
20
-108.93799999999999
10
-68.244500000000002
20
-109.93899999999999
10
-69.043899999999994
20
-109.93899999999999
10
-69.043899999999994
20
-113.03800000000001
10
-68.244500000000002
20
-113.03800000000001
10
-68.244500000000002
20
-118.83800000000001
10
-69.043899999999994
20
-118.83800000000001
10
-69.043899999999994
20
-121.93799999999999
10
-68.244500000000002
20
-121.93799999999999
10
-68.244500000000002
20
-122.93900000000001
10
-54.245200000000011
20
-122.93900000000001
10
-54.245200000000004
20
-121.93799999999999
10
-53.444400000000002
20
-121.93799999999999
10
-53.444400000000002
20
-118.83800000000001
10
-54.245200000000011
20
-118.83800000000001
10
-54.245200000000004
20
-113.03800000000001
10
-53.444400000000002
20
-113.03800000000001
10
-53.444400000000002
20
-109.93899999999999
0
LWPOLYLINE
5
213
100
AcDbEntity
8
0
100
AcDbPolyline
90
20
70
1
43
0.0
10
-140.34500000000003
20
-101.79400000000001
10
-140.34500000000003
20
-100.995
10
-143.44400000000002
20
-100.995
10
-143.44400000000002
20
-101.79400000000001
10
-144.44499999999999
20
-101.79400000000001
10
-144.44499999999999
20
-115.794
10
-143.44400000000002
20
-115.794
10
-143.44400000000002
20
-116.59399999999999
10
-140.34500000000003
20
-116.59399999999999
10
-140.34500000000003
20
-115.794
10
-134.54499999999999
20
-115.794
10
-134.54499999999999
20
-116.59399999999999
10
-131.44399999999996
20
-116.59399999999999
10
-131.44399999999999
20
-115.794
10
-130.44499999999999
20
-115.794
10
-130.44499999999999
20
-101.79400000000001
10
-131.44399999999996
20
-101.79400000000001
10
-131.44399999999999
20
-100.995
10
-134.54499999999999
20
-100.995
10
-134.54499999999999
20
-101.79400000000001
0
CIRCLE
5
214
100
AcDbEntity
8
0
100
AcDbCircle
10
-239.03892515181852
20
-2.86011763891947
30
0
40
1.2999999999999901
210
0
220
-0
230
1
0
CIRCLE
5
215
100
AcDbEntity
8
0
100
AcDbCircle
10
-250.03
20
-120.90649999999629
30
0
40
1.3000000000000078
210
0
220
-0
230
1
0
CIRCLE
5
216
100
AcDbEntity
8
0
100
AcDbCircle
10
-319.70530000000002
20
-47.644900000000007
30
0
40
1.3000000000000078
210
0
220
-0
230
1
0
CIRCLE
5
217
100
AcDbEntity
8
0
100
AcDbCircle
10
-396.90584000000001
20
-148.89600000000002
30
0
40
1.3
210
0
220
-0
230
1
0
CIRCLE
5
218
100
AcDbEntity
8
0
100
AcDbCircle
10
-250.03
20
-99.906500000000037
30
0
40
1.3000000000000078
210
0
220
-0
230
1
0
CIRCLE
5
219
100
AcDbEntity
8
0
100
AcDbCircle
10
-210.13279313459748
20
-57.406499999999987
30
0
40
1.2999999999999901
210
0
220
-0
230
1
0
CIRCLE
5
220
100
AcDbEntity
8
0
100
AcDbCircle
10
-284.10599999999999
20
-60.930999999999997
30
0
40
1.3000000000000078
210
0
220
-0
230
1
0
CIRCLE
5
221
100
AcDbEntity
8
0
100
AcDbCircle
10
-251.03000000000003
20
-148.89600000000004
30
0
40
1.3000000000000078
210
0
220
-0
230
1
0
CIRCLE
5
222
100
AcDbEntity
8
0
100
AcDbCircle
10
-389.91773390593272
20
-60.015666094067264
30
0
40
1.2999999999999989
210
0
220
-0
230
1
0
CIRCLE
5
223
100
AcDbEntity
8
0
100
AcDbCircle
10
-319.70530000000002
20
-150.89600000000004
30
0
40
1.3000000000000078
210
0
220
-0
230
1
0
CIRCLE
5
224
100
AcDbEntity
8
0
100
AcDbCircle
10
-258.08199999999999
20
-62.430999999999997
30
0
40
1.3000000000000078
210
0
220
-0
230
1
0
CIRCLE
5
225
100
AcDbEntity
8
0
100
AcDbCircle
10
-209.13279313459751
20
-133.89600000000007
30
0
40
1.2999999999999901
210
0
220
-0
230
1
0
CIRCLE
5
226
100
AcDbEntity
8
0
100
AcDbCircle
10
-217.99999728798866
20
-68.000001013278961
30
0
40
4.1000000000000014
210
0
220
-0
230
1
0
CIRCLE
5
227
100
AcDbEntity
8
0
100
AcDbCircle
10
-334.99999903142452
20
-150.00000223517421
30
0
40
4.1000000000000014
210
0
220
-0
230
1
0
CIRCLE
5
228
100
AcDbEntity
8
0
100
AcDbCircle
10
-293.99999842047691
20
-43.000000640749931
30
0
40
4.1000000000000014
210
0
220
-0
230
1
0
CIRCLE
5
229
100
AcDbEntity
8
0
100
AcDbCircle
10
-259.99999992549419
20
-150
30
0
40
4.1000000000000014
210
0
220
-0
230
1
0
CIRCLE
5
230
100
AcDbEntity
8
0
100
AcDbCircle
10
-284.99999828636646
20
-150.00000223517418
30
0
40
4.1000000000000014
210
0
220
-0
230
1
0
CIRCLE
5
231
100
AcDbEntity
8
0
100
AcDbCircle
10
-392.99999989569187
20
-50.00000074505806
30
0
40
4.0999999999999979
210
0
220
-0
230
1
0
LWPOLYLINE
5
232
100
AcDbEntity
8
0
100
AcDbPolyline
90
12
70
1
43
0.0
10
-247.03000000000003
20
-77.906499999999994
10
-212.13279313459751
20
-77.906499999999994
10
-212.13279313459751
20
-136.89600000000007
10
-208.13279313459753
20
-136.89600000000007
10
-208.13279313459753
20
-156.89600000000007
10
-206.13279313459753
20
-156.89600000000007
10
-206.13279313459748
20
-53.855099999999979
10
-238.94087098831915
20
2.9700384801372071
10
-312.50211102552436
20
-39.501200000000019
10
-400.90584000000001
20
-39.501199999999997
10
-400.90584000000001
20
-156.89600000000002
10
-247.03
20
-156.89600000000007
0
LWPOLYLINE
5
233
100
AcDbEntity
8
0
100
AcDbPolyline
90
20
70
1
43
0.0
10
-307.65479999999997
20
-52.78860000000001
10
-307.65479999999997
20
-51.7881
10
-293.65499999999997
20
-51.7881
10
-293.65499999999997
20
-52.78860000000001
10
-292.85599999999999
20
-52.78860000000001
10
-292.85599999999999
20
-55.887799999999999
10
-293.65499999999997
20
-55.887799999999999
10
-293.65499999999997
20
-61.68780000000001
10
-292.85599999999999
20
-61.68780000000001
10
-292.85599999999999
20
-64.788300000000007
10
-293.65499999999997
20
-64.788300000000007
10
-293.65499999999997
20
-65.788799999999995
10
-307.65479999999997
20
-65.788799999999995
10
-307.65479999999997
20
-64.788300000000007
10
-308.4556
20
-64.788300000000007
10
-308.4556
20
-61.68780000000001
10
-307.65479999999997
20
-61.68780000000001
10
-307.65479999999997
20
-55.887799999999999
10
-308.4556
20
-55.887799999999999
10
-308.4556
20
-52.78860000000001
0
LWPOLYLINE
5
234
100
AcDbEntity
8
0
100
AcDbPolyline
90
20
70
1
43
0.0
10
-326.70479999999998
20
-112.31999999999999
10
-326.70479999999998
20
-111.31900000000002
10
-312.70550000000003
20
-111.31900000000002
10
-312.70550000000003
20
-112.31999999999999
10
-311.90609999999998
20
-112.31999999999999
10
-311.90609999999998
20
-115.419
10
-312.70550000000003
20
-115.419
10
-312.70550000000003
20
-121.21899999999999
10
-311.90609999999998
20
-121.21899999999999
10
-311.90609999999998
20
-124.32000000000001
10
-312.70550000000003
20
-124.32000000000001
10
-312.70550000000003
20
-125.319
10
-326.70479999999998
20
-125.319
10
-326.70479999999998
20
-124.32000000000001
10
-327.50560000000002
20
-124.32000000000001
10
-327.50560000000002
20
-121.21899999999999
10
-326.70479999999998
20
-121.21899999999999
10
-326.70479999999998
20
-115.419
10
-327.50560000000002
20
-115.419
10
-327.50560000000002
20
-112.31999999999999
0
LWPOLYLINE
5
235
100
AcDbEntity
8
0
100
AcDbPolyline
90
20
70
1
43
0.0
10
-307.65479999999997
20
-109.93899999999999
10
-307.65479999999997
20
-108.93799999999999
10
-293.65499999999997
20
-108.93799999999999
10
-293.65499999999997
20
-109.93899999999999
10
-292.85599999999999
20
-109.93899999999999
10
-292.85599999999999
20
-113.03800000000001
10
-293.65499999999997
20
-113.03800000000001
10
-293.65499999999997
20
-118.83800000000001
10
-292.85599999999999
20
-118.83800000000001
10
-292.85599999999999
20
-121.93799999999999
10
-293.65499999999997
20
-121.93799999999999
10
-293.65499999999997
20
-122.93900000000001
10
-307.65479999999997
20
-122.93900000000001
10
-307.65479999999997
20
-121.93799999999999
10
-308.4556
20
-121.93799999999999
10
-308.4556
20
-118.83800000000001
10
-307.65479999999997
20
-118.83800000000001
10
-307.65479999999997
20
-113.03800000000001
10
-308.4556
20
-113.03800000000001
10
-308.4556
20
-109.93899999999999
0
LWPOLYLINE
5
236
100
AcDbEntity
8
0
100
AcDbPolyline
90
20
70
1
43
0.0
10
-288.60500000000002
20
-88.507400000000004
10
-288.60500000000002
20
-87.506900000000002
10
-274.60500000000002
20
-87.506900000000002
10
-274.60499999999996
20
-88.507400000000004
10
-273.80600000000004
20
-88.507400000000004
10
-273.80600000000004
20
-91.607900000000001
10
-274.60500000000002
20
-91.607900000000001
10
-274.60499999999996
20
-97.407900000000012
10
-273.80600000000004
20
-97.407900000000012
10
-273.80600000000004
20
-100.50700000000001
10
-274.60500000000002
20
-100.50700000000001
10
-274.60499999999996
20
-101.50800000000001
10
-288.60500000000002
20
-101.50800000000001
10
-288.60500000000002
20
-100.50700000000001
10
-289.40600000000001
20
-100.50700000000001
10
-289.40600000000006
20
-97.407900000000012
10
-288.60500000000002
20
-97.407900000000012
10
-288.60500000000002
20
-91.607900000000001
10
-289.40600000000001
20
-91.607900000000001
10
-289.40600000000006
20
-88.507400000000004
0
LWPOLYLINE
5
237
100
AcDbEntity
8
0
100
AcDbPolyline
90
20
70
1
43
0.0
10
-388.62020000000001
20
-105.17600000000002
10
-388.62020000000001
20
-104.17700000000002
10
-374.61790000000002
20
-104.17700000000002
10
-374.61790000000002
20
-105.17600000000002
10
-373.81869999999998
20
-105.17600000000002
10
-373.81869999999998
20
-108.277
10
-374.61790000000002
20
-108.277
10
-374.61790000000002
20
-114.07700000000003
10
-373.81869999999998
20
-114.07700000000003
10
-373.81869999999998
20
-117.17600000000002
10
-374.61790000000002
20
-117.17600000000002
10
-374.61790000000002
20
-118.176
10
-388.62020000000001
20
-118.176
10
-388.62020000000001
20
-117.17600000000002
10
-389.41800000000001
20
-117.17600000000002
10
-389.41800000000001
20
-114.07700000000003
10
-388.62020000000001
20
-114.07700000000003
10
-388.62020000000001
20
-108.277
10
-389.41800000000001
20
-108.277
10
-389.41800000000001
20
-105.17600000000002
0
LWPOLYLINE
5
238
100
AcDbEntity
8
0
100
AcDbPolyline
90
20
70
1
43
0.0
10
-254.68599999999998
20
-14.811199999999991
10
-242.56199999999995
20
-7.8107099999999896
10
-242.06200000000001
20
-8.677520000000003
10
-241.37
20
-8.2778600000000004
10
-239.81899999999999
20
-10.960899999999993
10
-240.51099999999997
20
-11.361899999999988
10
-237.61199999999997
20
-16.384899999999995
10
-236.91899999999998
20
-15.983900000000002
10
-235.37
20
-18.669699999999992
10
-236.06200000000001
20
-19.069300000000005
10
-235.56100000000001
20
-19.936100000000003
10
-247.68699999999998
20
-26.935099999999998
10
-248.18700000000001
20
-26.069699999999997
10
-248.88
20
-26.469400000000004
10
-250.429
20
-23.784899999999993
10
-249.73599999999999
20
-23.383899999999997
10
-252.637
20
-18.360999999999997
10
-253.32999999999998
20
-18.761999999999993
10
-254.88
20
-16.077599999999993
10
-254.18700000000001
20
-15.677899999999998
0
LWPOLYLINE
5
239
100
AcDbEntity
8
0
100
AcDbPolyline
90
20
70
1
43
0.0
10
-364.80490000000003
20
-124.22600000000001
10
-364.80490000000003
20
-123.227
10
-350.80550000000005
20
-123.227
10
-350.80550000000005
20
-124.22600000000001
10
-350.0061
20
-124.22600000000001
10
-350.00609999999995
20
-127.32700000000001
10
-350.80550000000005
20
-127.32700000000001
10
-350.80550000000005
20
-133.12700000000001
10
-350.0061
20
-133.12700000000001
10
-350.00609999999995
20
-136.226
10
-350.80550000000005
20
-136.226
10
-350.80550000000005
20
-137.226
10
-364.80490000000003
20
-137.226
10
-364.80490000000003
20
-136.226
10
-365.60550000000001
20
-136.226
10
-365.60550000000006
20
-133.12700000000001
10
-364.80490000000003
20
-133.12700000000001
10
-364.80490000000003
20
-127.32700000000001
10
-365.60550000000001
20
-127.32700000000001
10
-365.60550000000006
20
-124.22600000000001
0
LWPOLYLINE
5
240
100
AcDbEntity
8
0
100
AcDbPolyline
90
20
70
1
43
0.0
10
-245.161
20
-31.308999999999997
10
-233.03699999999998
20
-24.308599999999991
10
-232.53699999999998
20
-25.174000000000007
10
-231.845
20
-24.774400000000007
10
-230.29399999999998
20
-27.458800000000004
10
-230.98599999999999
20
-27.859800000000003
10
-228.08700000000002
20
-32.882699999999993
10
-227.39400000000001
20
-32.481699999999989
10
-225.84499999999994
20
-35.167500000000004
10
-226.53700000000001
20
-35.567100000000003
10
-226.03599999999997
20
-36.433799999999998
10
-238.16199999999995
20
-43.432899999999989
10
-238.66199999999998
20
-42.567599999999999
10
-239.35499999999996
20
-42.967300000000002
10
-240.904
20
-40.283000000000008
10
-240.21099999999996
20
-39.881900000000002
10
-243.11199999999997
20
-34.858900000000006
10
-243.80499999999998
20
-35.259899999999995
10
-245.35499999999999
20
-32.574100000000008
10
-244.66200000000001
20
-32.174399999999999
0
LWPOLYLINE
5
241
100
AcDbEntity
8
0
100
AcDbPolyline
90
20
70
1
43
0.0
10
-235.63599999999997
20
-47.806999999999988
10
-223.512
20
-40.806499999999993
10
-223.01199999999997
20
-41.671900000000015
10
-222.31999999999999
20
-41.272200000000005
10
-220.76899999999998
20
-43.957900000000016
10
-221.46099999999996
20
-44.357599999999991
10
-218.56200000000001
20
-49.380800000000008
10
-217.86900000000003
20
-48.981099999999991
10
-216.31999999999994
20
-51.665399999999991
10
-217.012
20
-52.065100000000001
10
-216.511
20
-52.93180000000001
10
-228.63699999999997
20
-59.930900000000015
10
-229.137
20
-59.065600000000018
10
-229.83000000000001
20
-59.465299999999999
10
-231.37899999999999
20
-56.780600000000007
10
-230.68599999999998
20
-56.380899999999997
10
-233.58700000000002
20
-51.356700000000004
10
-234.28
20
-51.757799999999996
10
-235.82999999999998
20
-49.072100000000006
10
-235.137
20
-48.67240000000001
0
LWPOLYLINE
5
242
100
AcDbEntity
8
0
100
AcDbPolyline
90
20
70
1
43
0.0
10
-307.65479999999997
20
-128.989
10
-307.65479999999997
20
-127.988
10
-293.65499999999997
20
-127.988
10
-293.65499999999997
20
-128.989
10
-292.85599999999999
20
-128.989
10
-292.85599999999999
20
-132.08799999999999
10
-293.65499999999997
20
-132.08799999999999
10
-293.65499999999997
20
-137.88800000000003
10
-292.85599999999999
20
-137.88800000000003
10
-292.85599999999999
20
-140.988
10
-293.65499999999997
20
-140.988
10
-293.65499999999997
20
-141.98900000000003
10
-307.65479999999997
20
-141.98900000000003
10
-307.65479999999997
20
-140.988
10
-308.4556
20
-140.988
10
-308.4556
20
-137.88800000000003
10
-307.65479999999997
20
-137.88800000000003
10
-307.65479999999997
20
-132.08799999999999
10
-308.4556
20
-132.08799999999999
10
-308.4556
20
-128.989
0
LWPOLYLINE
5
243
100
AcDbEntity
8
0
100
AcDbPolyline
90
20
70
1
43
0.0
10
-364.80629999999996
20
-48.026100000000007
10
-364.80629999999996
20
-47.027000000000001
10
-350.80690000000004
20
-47.027000000000001
10
-350.80690000000004
20
-48.026100000000007
10
-350.0061
20
-48.026100000000007
10
-350.00609999999995
20
-51.126700000000007
10
-350.80690000000004
20
-51.126700000000007
10
-350.80690000000004
20
-56.926699999999997
10
-350.0061
20
-56.926699999999997
10
-350.00609999999995
20
-60.025800000000004
10
-350.80690000000004
20
-60.025800000000004
10
-350.80690000000004
20
-61.026300000000006
10
-364.80629999999996
20
-61.026300000000006
10
-364.80630000000008
20
-60.025800000000004
10
-365.60550000000001
20
-60.025800000000004
10
-365.60550000000006
20
-56.926699999999997
10
-364.80629999999996
20
-56.926699999999997
10
-364.80630000000008
20
-51.126700000000007
10
-365.60550000000001
20
-51.126700000000007
10
-365.60550000000006
20
-48.026100000000007
0
LWPOLYLINE
5
244
100
AcDbEntity
8
0
100
AcDbPolyline
90
20
70
1
43
0.0
10
-345.75479999999999
20
-128.989
10
-345.75479999999999
20
-127.988
10
-331.75549999999998
20
-127.988
10
-331.75549999999998
20
-128.989
10
-330.95609999999999
20
-128.989
10
-330.95609999999999
20
-132.08799999999999
10
-331.75549999999998
20
-132.08799999999999
10
-331.75549999999998
20
-137.88800000000003
10
-330.95609999999999
20
-137.88800000000003
10
-330.95609999999999
20
-140.988
10
-331.75549999999998
20
-140.988
10
-331.75549999999998
20
-141.98900000000003
10
-345.75479999999999
20
-141.98900000000003
10
-345.75479999999999
20
-140.988
10
-346.55560000000003
20
-140.988
10
-346.55559999999991
20
-137.88800000000003
10
-345.75479999999999
20
-137.88800000000003
10
-345.75479999999999
20
-132.08799999999999
10
-346.55560000000003
20
-132.08799999999999
10
-346.55559999999991
20
-128.989
0
LWPOLYLINE
5
245
100
AcDbEntity
8
0
100
AcDbPolyline
90
20
70
1
43
0.0
10
-388.62020000000001
20
-124.22600000000001
10
-388.62020000000001
20
-123.227
10
-374.61790000000002
20
-123.227
10
-374.61790000000002
20
-124.22600000000001
10
-373.81869999999998
20
-124.22600000000001
10
-373.81869999999998
20
-127.32700000000001
10
-374.61790000000002
20
-127.32700000000001
10
-374.61790000000002
20
-133.12700000000001
10
-373.81869999999998
20
-133.12700000000001
10
-373.81869999999998
20
-136.226
10
-374.61790000000002
20
-136.226
10
-374.61790000000002
20
-137.226
10
-388.62020000000001
20
-137.226
10
-388.62020000000001
20
-136.226
10
-389.41800000000001
20
-136.226
10
-389.41800000000001
20
-133.12700000000001
10
-388.62020000000001
20
-133.12700000000001
10
-388.62020000000001
20
-127.32700000000001
10
-389.41800000000001
20
-127.32700000000001
10
-389.41800000000001
20
-124.22600000000001
0
LWPOLYLINE
5
246
100
AcDbEntity
8
0
100
AcDbPolyline
90
20
70
1
43
0.0
10
-326.70479999999998
20
-93.269900000000007
10
-326.70479999999998
20
-92.269400000000005
10
-312.70550000000003
20
-92.269400000000005
10
-312.70550000000003
20
-93.269900000000007
10
-311.90609999999998
20
-93.269900000000007
10
-311.90609999999998
20
-96.369
10
-312.70550000000003
20
-96.369
10
-312.70550000000003
20
-102.16900000000001
10
-311.90609999999998
20
-102.16900000000001
10
-311.90609999999998
20
-105.27000000000001
10
-312.70550000000003
20
-105.27000000000001
10
-312.70550000000003
20
-106.26899999999999
10
-326.70479999999998
20
-106.26899999999999
10
-326.70479999999998
20
-105.27000000000001
10
-327.50560000000002
20
-105.27000000000001
10
-327.50560000000002
20
-102.16900000000001
10
-326.70479999999998
20
-102.16900000000001
10
-326.70479999999998
20
-96.369
10
-327.50560000000002
20
-96.369
10
-327.50560000000002
20
-93.269900000000007
0
LWPOLYLINE
5
247
100
AcDbEntity
8
0
100
AcDbPolyline
90
20
70
1
43
0.0
10
-307.65479999999997
20
-71.8386
10
-307.65479999999997
20
-70.838099999999997
10
-293.65499999999997
20
-70.838099999999997
10
-293.65499999999997
20
-71.8386
10
-292.85599999999999
20
-71.8386
10
-292.85599999999999
20
-74.937799999999996
10
-293.65499999999997
20
-74.937799999999996
10
-293.65499999999997
20
-80.737799999999993
10
-292.85599999999999
20
-80.737799999999993
10
-292.85599999999999
20
-83.838300000000018
10
-293.65499999999997
20
-83.838300000000018
10
-293.65499999999997
20
-84.838800000000006
10
-307.65479999999997
20
-84.838800000000006
10
-307.65479999999997
20
-83.838300000000018
10
-308.4556
20
-83.838300000000018
10
-308.4556
20
-80.737799999999993
10
-307.65479999999997
20
-80.737799999999993
10
-307.65479999999997
20
-74.937799999999996
10
-308.4556
20
-74.937799999999996
10
-308.4556
20
-71.8386
0
LWPOLYLINE
5
248
100
AcDbEntity
8
0
100
AcDbPolyline
90
20
70
1
43
0.0
10
-388.62020000000001
20
-86.126100000000008
10
-388.62020000000001
20
-85.12700000000001
10
-374.61790000000002
20
-85.12700000000001
10
-374.61790000000002
20
-86.126100000000008
10
-373.81869999999998
20
-86.126100000000008
10
-373.81869999999998
20
-89.226699999999994
10
-374.61790000000002
20
-89.226699999999994
10
-374.61790000000002
20
-95.026700000000005
10
-373.81869999999998
20
-95.026700000000005
10
-373.81869999999998
20
-98.125799999999998
10
-374.61790000000002
20
-98.125799999999998
10
-374.61790000000002
20
-99.126300000000001
10
-388.62020000000001
20
-99.126300000000001
10
-388.62020000000001
20
-98.125799999999998
10
-389.41800000000001
20
-98.125799999999998
10
-389.41800000000001
20
-95.026700000000005
10
-388.62020000000001
20
-95.026700000000005
10
-388.62020000000001
20
-89.226699999999994
10
-389.41800000000001
20
-89.226699999999994
10
-389.41800000000001
20
-86.126100000000008
0
LWPOLYLINE
5
249
100
AcDbEntity
8
0
100
AcDbPolyline
90
20
70
1
43
0.0
10
-364.80490000000003
20
-86.126100000000008
10
-364.80490000000003
20
-85.12700000000001
10
-350.80550000000005
20
-85.12700000000001
10
-350.80550000000005
20
-86.126100000000008
10
-350.0061
20
-86.126100000000008
10
-350.00609999999995
20
-89.226699999999994
10
-350.80550000000005
20
-89.226699999999994
10
-350.80550000000005
20
-95.026700000000005
10
-350.0061
20
-95.026700000000005
10
-350.00609999999995
20
-98.125799999999998
10
-350.80550000000005
20
-98.125799999999998
10
-350.80550000000005
20
-99.126300000000001
10
-364.80490000000003
20
-99.126300000000001
10
-364.80490000000003
20
-98.125799999999998
10
-365.60550000000001
20
-98.125799999999998
10
-365.60550000000006
20
-95.026700000000005
10
-364.80490000000003
20
-95.026700000000005
10
-364.80490000000003
20
-89.226699999999994
10
-365.60550000000001
20
-89.226699999999994
10
-365.60550000000006
20
-86.126100000000008
0
LWPOLYLINE
5
250
100
AcDbEntity
8
0
100
AcDbPolyline
90
20
70
1
43
0.0
10
-345.75479999999999
20
-71.8386
10
-345.75479999999999
20
-70.838099999999997
10
-331.75549999999998
20
-70.838099999999997
10
-331.75549999999998
20
-71.8386
10
-330.95609999999999
20
-71.8386
10
-330.95609999999999
20
-74.937799999999996
10
-331.75549999999998
20
-74.937799999999996
10
-331.75549999999998
20
-80.737799999999993
10
-330.95609999999999
20
-80.737799999999993
10
-330.95609999999999
20
-83.838300000000018
10
-331.75549999999998
20
-83.838300000000018
10
-331.75549999999998
20
-84.838800000000006
10
-345.75479999999999
20
-84.838800000000006
10
-345.75479999999999
20
-83.838300000000018
10
-346.55560000000003
20
-83.838300000000018
10
-346.55559999999991
20
-80.737799999999993
10
-345.75479999999999
20
-80.737799999999993
10
-345.75479999999999
20
-74.937799999999996
10
-346.55560000000003
20
-74.937799999999996
10
-346.55559999999991
20
-71.8386
0
LWPOLYLINE
5
251
100
AcDbEntity
8
0
100
AcDbPolyline
90
20
70
1
43
0.0
10
-259.65499999999997
20
-73.219399999999993
10
-259.65499999999997
20
-72.420000000000016
10
-256.55599999999998
20
-72.420000000000016
10
-256.55599999999998
20
-73.219399999999993
10
-255.55500000000001
20
-73.219399999999993
10
-255.55500000000001
20
-87.218700000000013
10
-256.55599999999998
20
-87.218700000000013
10
-256.55599999999998
20
-88.019499999999994
10
-259.65499999999997
20
-88.019499999999994
10
-259.65499999999997
20
-87.218700000000013
10
-265.45499999999998
20
-87.218700000000013
10
-265.45500000000004
20
-88.019499999999994
10
-268.55600000000004
20
-88.019499999999994
10
-268.55600000000004
20
-87.218700000000013
10
-269.55500000000001
20
-87.218700000000013
10
-269.55500000000001
20
-73.219399999999993
10
-268.55600000000004
20
-73.219399999999993
10
-268.55600000000004
20
-72.420000000000016
10
-265.45499999999998
20
-72.420000000000016
10
-265.45500000000004
20
-73.219399999999993
0
LWPOLYLINE
5
252
100
AcDbEntity
8
0
100
AcDbPolyline
90
20
70
1
43
0.0
10
-326.70479999999998
20
-74.219899999999996
10
-326.70479999999998
20
-73.219399999999993
10
-312.70550000000003
20
-73.219399999999993
10
-312.70550000000003
20
-74.219899999999996
10
-311.90609999999998
20
-74.219899999999996
10
-311.90609999999998
20
-77.319000000000003
10
-312.70550000000003
20
-77.319000000000003
10
-312.70550000000003
20
-83.119
10
-311.90609999999998
20
-83.119
10
-311.90609999999998
20
-86.2196
10
-312.70550000000003
20
-86.2196
10
-312.70550000000003
20
-87.218700000000013
10
-326.70479999999998
20
-87.218700000000013
10
-326.70479999999998
20
-86.2196
10
-327.50560000000002
20
-86.2196
10
-327.50560000000002
20
-83.119
10
-326.70479999999998
20
-83.119
10
-326.70479999999998
20
-77.319000000000003
10
-327.50560000000002
20
-77.319000000000003
10
-327.50560000000002
20
-74.219899999999996
0
LWPOLYLINE
5
253
100
AcDbEntity
8
0
100
AcDbPolyline
90
20
70
1
43
0.0
10
-288.60500000000002
20
-69.457400000000007
10
-288.60500000000002
20
-68.456900000000019
10
-274.60500000000002
20
-68.456900000000019
10
-274.60499999999996
20
-69.457400000000007
10
-273.80600000000004
20
-69.457400000000007
10
-273.80600000000004
20
-72.557900000000018
10
-274.60500000000002
20
-72.557900000000018
10
-274.60499999999996
20
-78.357900000000001
10
-273.80600000000004
20
-78.357900000000001
10
-273.80600000000004
20
-81.457099999999997
10
-274.60500000000002
20
-81.457099999999997
10
-274.60499999999996
20
-82.457600000000014
10
-288.60500000000002
20
-82.457600000000014
10
-288.60500000000002
20
-81.457099999999997
10
-289.40600000000001
20
-81.457099999999997
10
-289.40600000000006
20
-78.357900000000001
10
-288.60500000000002
20
-78.357900000000001
10
-288.60500000000002
20
-72.557900000000018
10
-289.40600000000001
20
-72.557900000000018
10
-289.40600000000006
20
-69.457400000000007
0
LWPOLYLINE
5
254
100
AcDbEntity
8
0
100
AcDbPolyline
90
20
70
1
43
0.0
10
-288.60500000000002
20
-107.55700000000002
10
-288.60500000000002
20
-106.55700000000002
10
-274.60500000000002
20
-106.55700000000002
10
-274.60499999999996
20
-107.55700000000002
10
-273.80600000000004
20
-107.55700000000002
10
-273.80600000000004
20
-110.65799999999999
10
-274.60500000000002
20
-110.65799999999999
10
-274.60499999999996
20
-116.45800000000001
10
-273.80600000000004
20
-116.45800000000001
10
-273.80600000000004
20
-119.557
10
-274.60500000000002
20
-119.557
10
-274.60499999999996
20
-120.55799999999999
10
-288.60500000000002
20
-120.55799999999999
10
-288.60500000000002
20
-119.557
10
-289.40600000000001
20
-119.557
10
-289.40600000000006
20
-116.45800000000001
10
-288.60500000000002
20
-116.45800000000001
10
-288.60500000000002
20
-110.65799999999999
10
-289.40600000000001
20
-110.65799999999999
10
-289.40600000000006
20
-107.55700000000002
0
LWPOLYLINE
5
255
100
AcDbEntity
8
0
100
AcDbPolyline
90
20
70
1
43
0.0
10
-307.65479999999997
20
-90.888599999999997
10
-307.65479999999997
20
-89.888099999999994
10
-293.65499999999997
20
-89.888099999999994
10
-293.65499999999997
20
-90.888599999999997
10
-292.85599999999999
20
-90.888599999999997
10
-292.85599999999999
20
-93.987800000000007
10
-293.65499999999997
20
-93.987800000000007
10
-293.65499999999997
20
-99.787800000000004
10
-292.85599999999999
20
-99.787800000000004
10
-292.85599999999999
20
-102.88800000000001
10
-293.65499999999997
20
-102.88800000000001
10
-293.65499999999997
20
-103.889
10
-307.65479999999997
20
-103.889
10
-307.65479999999997
20
-102.88800000000001
10
-308.4556
20
-102.88800000000001
10
-308.4556
20
-99.787800000000004
10
-307.65479999999997
20
-99.787800000000004
10
-307.65479999999997
20
-93.987800000000007
10
-308.4556
20
-93.987800000000007
10
-308.4556
20
-90.888599999999997
0
LWPOLYLINE
5
256
100
AcDbEntity
8
0
100
AcDbPolyline
90
20
70
1
43
0.0
10
-326.70479999999998
20
-55.169899999999998
10
-326.70479999999998
20
-54.169400000000003
10
-312.70550000000003
20
-54.169400000000003
10
-312.70550000000003
20
-55.169899999999998
10
-311.90609999999998
20
-55.169899999999998
10
-311.90609999999998
20
-58.269000000000005
10
-312.70550000000003
20
-58.269000000000005
10
-312.70550000000003
20
-64.070400000000006
10
-311.90609999999998
20
-64.070400000000006
10
-311.90609999999998
20
-67.169600000000003
10
-312.70550000000003
20
-67.169600000000003
10
-312.70550000000003
20
-68.168700000000001
10
-326.70479999999998
20
-68.168700000000001
10
-326.70479999999998
20
-67.169600000000003
10
-327.50560000000002
20
-67.169600000000003
10
-327.50560000000002
20
-64.070400000000006
10
-326.70479999999998
20
-64.070400000000006
10
-326.70479999999998
20
-58.269000000000005
10
-327.50560000000002
20
-58.269000000000005
10
-327.50560000000002
20
-55.169899999999998
0
LWPOLYLINE
5
257
100
AcDbEntity
8
0
100
AcDbPolyline
90
20
70
1
43
0.0
10
-364.80490000000003
20
-67.076099999999997
10
-364.80490000000003
20
-66.076999999999998
10
-350.80550000000005
20
-66.076999999999998
10
-350.80550000000005
20
-67.076099999999997
10
-350.0061
20
-67.076099999999997
10
-350.00609999999995
20
-70.176699999999997
10
-350.80550000000005
20
-70.176699999999997
10
-350.80550000000005
20
-75.976699999999994
10
-350.0061
20
-75.976699999999994
10
-350.00609999999995
20
-79.075800000000001
10
-350.80550000000005
20
-79.075800000000001
10
-350.80550000000005
20
-80.076300000000003
10
-364.80490000000003
20
-80.076300000000003
10
-364.80490000000003
20
-79.075800000000001
10
-365.60550000000001
20
-79.075800000000001
10
-365.60550000000006
20
-75.976699999999994
10
-364.80490000000003
20
-75.976699999999994
10
-364.80490000000003
20
-70.176699999999997
10
-365.60550000000001
20
-70.176699999999997
10
-365.60550000000006
20
-67.076099999999997
0
LWPOLYLINE
5
258
100
AcDbEntity
8
0
100
AcDbPolyline
90
20
70
1
43
0.0
10
-269.55500000000001
20
-126.60700000000003
10
-269.55500000000001
20
-125.60700000000003
10
-255.55500000000001
20
-125.60700000000003
10
-255.55500000000001
20
-126.60700000000003
10
-254.756
20
-126.60700000000003
10
-254.756
20
-129.708
10
-255.55500000000001
20
-129.708
10
-255.55500000000001
20
-135.50799999999998
10
-254.756
20
-135.50799999999998
10
-254.756
20
-138.60700000000003
10
-255.55500000000001
20
-138.60700000000003
10
-255.55500000000001
20
-139.60900000000004
10
-269.55500000000001
20
-139.60900000000004
10
-269.55500000000001
20
-138.60700000000003
10
-270.35599999999999
20
-138.60700000000003
10
-270.35599999999999
20
-135.50799999999998
10
-269.55500000000001
20
-135.50799999999998
10
-269.55500000000001
20
-129.708
10
-270.35599999999999
20
-129.708
10
-270.35599999999999
20
-126.60700000000003
0
LWPOLYLINE
5
259
100
AcDbEntity
8
0
100
AcDbPolyline
90
60
70
1
43
0.0
10
-264.06299999999999
20
-21.668299999999991
10
-258.63400000000001
20
-18.533299999999993
10
-257.77099999999996
20
-20.026999999999994
10
-256.923
20
-19.537800000000001
10
-255.27299999999997
20
-22.395900000000005
10
-256.12200000000001
20
-22.885099999999994
10
-255.25900000000001
20
-24.378899999999994
10
-259.13
20
-26.614000000000001
10
-258.36700000000002
20
-27.935600000000001
10
-257.84699999999998
20
-27.636500000000005
10
-258.24799999999999
20
-26.941999999999993
10
-255.56399999999996
20
-25.3917
10
-255.16399999999999
20
-26.084900000000005
10
-254.29699999999997
20
-25.586000000000002
10
-247.29700000000003
20
-37.710199999999986
10
-248.16399999999999
20
-38.209000000000003
10
-247.76399999999998
20
-38.901899999999998
10
-250.447
20
-40.452300000000001
10
-250.84799999999998
20
-39.759099999999997
10
-251.36799999999999
20
-40.059700000000007
10
-250.60399999999993
20
-41.379800000000017
10
-246.73299999999998
20
-39.145999999999987
10
-245.87200000000001
20
-40.638199999999991
10
-245.02300000000002
20
-40.147900000000007
10
-243.37199999999999
20
-43.005699999999997
10
-244.221
20
-43.496399999999994
10
-243.35900000000004
20
-44.990099999999998
10
-248.78799999999998
20
-48.125199999999992
10
-248.37600000000003
20
-48.840299999999999
10
-250.80100000000002
20
-50.240499999999997
10
-251.21299999999994
20
-49.525399999999998
10
-254.011
20
-51.1404
10
-254.87299999999999
20
-49.6464
10
-255.67099999999999
20
-50.1068
10
-257.32099999999997
20
-47.248900000000006
10
-256.524
20
-46.788599999999995
10
-257.38499999999999
20
-45.294899999999991
10
-254.58799999999997
20
-43.680899999999994
10
-255.352
20
-42.359400000000001
10
-255.87099999999998
20
-42.659999999999997
10
-255.46999999999997
20
-43.353200000000001
10
-258.15599999999995
20
-44.901899999999998
10
-258.55600000000004
20
-44.2087
10
-259.42200000000003
20
-44.7089
10
-266.42099999999999
20
-32.585100000000004
10
-265.55599999999998
20
-32.08489999999999
10
-265.95500000000004
20
-31.3931
10
-263.27100000000007
20
-29.842800000000004
10
-262.87
20
-30.535999999999998
10
-262.35000000000002
20
-30.235499999999995
10
-263.11399999999998
20
-28.914000000000001
10
-265.90999999999997
20
-30.529100000000003
10
-266.77399999999994
20
-29.035299999999992
10
-267.56999999999999
20
-29.495500000000007
10
-269.21999999999997
20
-26.637500000000003
10
-268.423
20
-26.177200000000003
10
-269.286
20
-24.683400000000006
10
-266.48899999999998
20
-23.068400000000004
10
-266.90200000000004
20
-22.354499999999998
10
-264.47699999999998
20
-20.954399999999993
0
LWPOLYLINE
5
260
100
AcDbEntity
8
0
100
AcDbPolyline
90
20
70
1
43
0.0
10
-383.85629999999998
20
-48.026100000000007
10
-383.85629999999998
20
-47.027000000000001
10
-369.85540000000003
20
-47.027000000000001
10
-369.85540000000003
20
-48.026100000000007
10
-369.05619999999999
20
-48.026100000000007
10
-369.05619999999999
20
-51.126700000000007
10
-369.85540000000003
20
-51.126700000000007
10
-369.85540000000003
20
-56.926699999999997
10
-369.05619999999999
20
-56.926699999999997
10
-369.05619999999999
20
-60.025800000000004
10
-369.85540000000003
20
-60.025800000000004
10
-369.85540000000003
20
-61.026300000000006
10
-383.85629999999998
20
-61.026300000000006
10
-383.85629999999998
20
-60.025800000000004
10
-384.65690000000001
20
-60.025800000000004
10
-384.65689999999995
20
-56.926699999999997
10
-383.85629999999998
20
-56.926699999999997
10
-383.85629999999998
20
-51.126700000000007
10
-384.65690000000001
20
-51.126700000000007
10
-384.65689999999995
20
-48.026100000000007
0
LWPOLYLINE
5
261
100
AcDbEntity
8
0
100
AcDbPolyline
90
20
70
1
43
0.0
10
-288.60500000000002
20
-126.60700000000003
10
-288.60500000000002
20
-125.60700000000003
10
-274.60500000000002
20
-125.60700000000003
10
-274.60499999999996
20
-126.60700000000003
10
-273.80600000000004
20
-126.60700000000003
10
-273.80600000000004
20
-129.708
10
-274.60500000000002
20
-129.708
10
-274.60499999999996
20
-135.50799999999998
10
-273.80600000000004
20
-135.50799999999998
10
-273.80600000000004
20
-138.60700000000003
10
-274.60500000000002
20
-138.60700000000003
10
-274.60499999999996
20
-139.60900000000004
10
-288.60500000000002
20
-139.60900000000004
10
-288.60500000000002
20
-138.60700000000003
10
-289.40600000000001
20
-138.60700000000003
10
-289.40600000000006
20
-135.50799999999998
10
-288.60500000000002
20
-135.50799999999998
10
-288.60500000000002
20
-129.708
10
-289.40600000000001
20
-129.708
10
-289.40600000000006
20
-126.60700000000003
0
LWPOLYLINE
5
262
100
AcDbEntity
8
0
100
AcDbPolyline
90
20
70
1
43
0.0
10
-326.70479999999998
20
-131.37
10
-326.70479999999998
20
-130.369
10
-312.70550000000003
20
-130.369
10
-312.70550000000003
20
-131.37
10
-311.90609999999998
20
-131.37
10
-311.90609999999998
20
-134.47
10
-312.70550000000003
20
-134.47
10
-312.70550000000003
20
-140.27000000000001
10
-311.90609999999998
20
-140.27000000000001
10
-311.90609999999998
20
-143.37
10
-312.70550000000003
20
-143.37
10
-312.70550000000003
20
-144.37
10
-326.70479999999998
20
-144.37
10
-326.70479999999998
20
-143.37
10
-327.50560000000002
20
-143.37
10
-327.50560000000002
20
-140.27000000000001
10
-326.70479999999998
20
-140.27000000000001
10
-326.70479999999998
20
-134.47
10
-327.50560000000002
20
-134.47
10
-327.50560000000002
20
-131.37
0
LWPOLYLINE
5
263
100
AcDbEntity
8
0
100
AcDbPolyline
90
60
70
1
43
0.0
10
-280.56100000000004
20
-31.193299999999997
10
-275.13200000000001
20
-28.058299999999999
10
-274.26900000000001
20
-29.552000000000007
10
-273.41999999999996
20
-29.062799999999996
10
-271.77100000000002
20
-31.920900000000003
10
-272.62
20
-32.4101
10
-271.75700000000001
20
-33.903899999999993
10
-275.62799999999993
20
-36.138899999999992
10
-274.86399999999998
20
-37.460799999999999
10
-274.34500000000003
20
-37.160200000000003
10
-274.74600000000004
20
-36.466999999999992
10
-272.05999999999995
20
-34.916699999999999
10
-271.661
20
-35.609700000000004
10
-270.79499999999996
20
-35.11099999999999
10
-263.79500000000002
20
-47.235199999999999
10
-264.65999999999997
20
-47.733999999999995
10
-264.26099999999997
20
-48.426900000000003
10
-266.94499999999999
20
-49.977300000000007
10
-267.346
20
-49.284100000000002
10
-267.86500000000001
20
-49.584699999999998
10
-267.10199999999998
20
-50.904800000000002
10
-263.23099999999999
20
-48.671000000000006
10
-262.37
20
-50.163199999999996
10
-261.52100000000002
20
-49.672899999999998
10
-259.87
20
-52.53070000000001
10
-260.71899999999999
20
-53.021400000000007
10
-259.85599999999999
20
-54.515099999999997
10
-265.28700000000003
20
-57.650199999999998
10
-264.875
20
-58.365299999999991
10
-267.29899999999998
20
-59.765500000000003
10
-267.71100000000001
20
-59.050400000000003
10
-270.50799999999992
20
-60.665399999999991
10
-271.37099999999998
20
-59.171399999999991
10
-272.16800000000001
20
-59.631800000000005
10
-273.81700000000001
20
-56.77389999999999
10
-273.02199999999999
20
-56.313600000000001
10
-273.88499999999999
20
-54.81989999999999
10
-271.08600000000001
20
-53.2059
10
-271.84899999999999
20
-51.884399999999999
10
-272.36899999999997
20
-52.185000000000002
10
-271.96799999999996
20
-52.8782
10
-274.65300000000002
20
-54.426900000000003
10
-275.053
20
-53.733700000000006
10
-275.91999999999996
20
-54.233900000000006
10
-282.91899999999998
20
-42.109999999999999
10
-282.05399999999997
20
-41.609800000000007
10
-282.45299999999997
20
-40.917999999999999
10
-279.76900000000001
20
-39.367900000000006
10
-279.36799999999999
20
-40.061100000000003
10
-278.84799999999996
20
-39.7605
10
-279.61199999999997
20
-38.439000000000007
10
-282.40800000000002
20
-40.054000000000009
10
-283.27199999999999
20
-38.560400000000001
10
-284.06700000000001
20
-39.020400000000002
10
-285.71800000000002
20
-36.162500000000001
10
-284.92099999999999
20
-35.702199999999998
10
-285.78399999999999
20
-34.208399999999997
10
-282.98700000000002
20
-32.593400000000003
10
-283.399
20
-31.87949999999999
10
-280.97499999999997
20
-30.479399999999998
0
LWPOLYLINE
5
264
100
AcDbEntity
8
0
100
AcDbPolyline
90
20
70
1
43
0.0
10
-252.13499999999996
20
-57.332000000000001
10
-240.00999999999999
20
-50.331499999999991
10
-239.50899999999996
20
-51.196899999999999
10
-238.81700000000001
20
-50.797200000000004
10
-237.26599999999996
20
-53.482900000000001
10
-237.959
20
-53.882599999999996
10
-235.06
20
-58.905799999999992
10
-234.36700000000002
20
-58.506100000000004
10
-232.81599999999997
20
-61.190400000000011
10
-233.50999999999999
20
-61.590100000000014
10
-233.00900000000001
20
-62.456799999999994
10
-245.13499999999999
20
-69.4559
10
-245.63499999999999
20
-68.590599999999995
10
-246.327
20
-68.990300000000005
10
-247.87700000000001
20
-66.305599999999998
10
-247.184
20
-65.905900000000003
10
-250.08500000000001
20
-60.881700000000009
10
-250.77600000000001
20
-61.282800000000002
10
-252.327
20
-58.59709999999999
10
-251.63499999999999
20
-58.197400000000002
0
LWPOLYLINE
5
265
100
AcDbEntity
8
0
100
AcDbPolyline
90
20
70
1
43
0.0
10
-388.62020000000001
20
-67.076099999999997
10
-388.62020000000001
20
-66.076999999999998
10
-374.61790000000002
20
-66.076999999999998
10
-374.61790000000002
20
-67.076099999999997
10
-373.81869999999998
20
-67.076099999999997
10
-373.81869999999998
20
-70.176699999999997
10
-374.61790000000002
20
-70.176699999999997
10
-374.61790000000002
20
-75.976699999999994
10
-373.81869999999998
20
-75.976699999999994
10
-373.81869999999998
20
-79.075800000000001
10
-374.61790000000002
20
-79.075800000000001
10
-374.61790000000002
20
-80.076300000000003
10
-388.62020000000001
20
-80.076300000000003
10
-388.62020000000001
20
-79.075800000000001
10
-389.41800000000001
20
-79.075800000000001
10
-389.41800000000001
20
-75.976699999999994
10
-388.62020000000001
20
-75.976699999999994
10
-388.62020000000001
20
-70.176699999999997
10
-389.41800000000001
20
-70.176699999999997
10
-389.41800000000001
20
-67.076099999999997
0
LWPOLYLINE
5
266
100
AcDbEntity
8
0
100
AcDbPolyline
90
20
70
1
43
0.0
10
-345.75479999999999
20
-52.78860000000001
10
-345.75479999999999
20
-51.7881
10
-331.75549999999998
20
-51.7881
10
-331.75549999999998
20
-52.78860000000001
10
-330.95609999999999
20
-52.78860000000001
10
-330.95609999999999
20
-55.887799999999999
10
-331.75549999999998
20
-55.887799999999999
10
-331.75549999999998
20
-61.68780000000001
10
-330.95609999999999
20
-61.68780000000001
10
-330.95609999999999
20
-64.788300000000007
10
-331.75549999999998
20
-64.788300000000007
10
-331.75549999999998
20
-65.788799999999995
10
-345.75479999999999
20
-65.788799999999995
10
-345.75479999999999
20
-64.788300000000007
10
-346.55560000000003
20
-64.788300000000007
10
-346.55559999999991
20
-61.68780000000001
10
-345.75479999999999
20
-61.68780000000001
10
-345.75479999999999
20
-55.887799999999999
10
-346.55560000000003
20
-55.887799999999999
10
-346.55559999999991
20
-52.78860000000001
0
LWPOLYLINE
5
267
100
AcDbEntity
8
0
100
AcDbPolyline
90
20
70
1
43
0.0
10
-345.75479999999999
20
-90.888599999999997
10
-345.75479999999999
20
-89.888099999999994
10
-331.75549999999998
20
-89.888099999999994
10
-331.75549999999998
20
-90.888599999999997
10
-330.95609999999999
20
-90.888599999999997
10
-330.95609999999999
20
-93.987800000000007
10
-331.75549999999998
20
-93.987800000000007
10
-331.75549999999998
20
-99.787800000000004
10
-330.95609999999999
20
-99.787800000000004
10
-330.95609999999999
20
-102.88800000000001
10
-331.75549999999998
20
-102.88800000000001
10
-331.75549999999998
20
-103.889
10
-345.75479999999999
20
-103.889
10
-345.75479999999999
20
-102.88800000000001
10
-346.55560000000003
20
-102.88800000000001
10
-346.55559999999991
20
-99.787800000000004
10
-345.75479999999999
20
-99.787800000000004
10
-345.75479999999999
20
-93.987800000000007
10
-346.55560000000003
20
-93.987800000000007
10
-346.55559999999991
20
-90.888599999999997
0
LWPOLYLINE
5
268
100
AcDbEntity
8
0
100
AcDbPolyline
90
20
70
1
43
0.0
10
-364.80490000000003
20
-105.17600000000002
10
-364.80490000000003
20
-104.17700000000002
10
-350.80550000000005
20
-104.17700000000002
10
-350.80550000000005
20
-105.17600000000002
10
-350.0061
20
-105.17600000000002
10
-350.00609999999995
20
-108.277
10
-350.80550000000005
20
-108.277
10
-350.80550000000005
20
-114.07700000000003
10
-350.0061
20
-114.07700000000003
10
-350.00609999999995
20
-117.17600000000002
10
-350.80550000000005
20
-117.17600000000002
10
-350.80550000000005
20
-118.176
10
-364.80490000000003
20
-118.176
10
-364.80490000000003
20
-117.17600000000002
10
-365.60550000000001
20
-117.17600000000002
10
-365.60550000000006
20
-114.07700000000003
10
-364.80490000000003
20
-114.07700000000003
10
-364.80490000000003
20
-108.277
10
-365.60550000000001
20
-108.277
10
-365.60550000000006
20
-105.17600000000002
0
LWPOLYLINE
5
269
100
AcDbEntity
8
0
100
AcDbPolyline
90
20
70
1
43
0.0
10
-345.75479999999999
20
-109.93899999999999
10
-345.75479999999999
20
-108.93799999999999
10
-331.75549999999998
20
-108.93799999999999
10
-331.75549999999998
20
-109.93899999999999
10
-330.95609999999999
20
-109.93899999999999
10
-330.95609999999999
20
-113.03800000000001
10
-331.75549999999998
20
-113.03800000000001
10
-331.75549999999998
20
-118.83800000000001
10
-330.95609999999999
20
-118.83800000000001
10
-330.95609999999999
20
-121.93799999999999
10
-331.75549999999998
20
-121.93799999999999
10
-331.75549999999998
20
-122.93900000000001
10
-345.75479999999999
20
-122.93900000000001
10
-345.75479999999999
20
-121.93799999999999
10
-346.55560000000003
20
-121.93799999999999
10
-346.55559999999991
20
-118.83800000000001
10
-345.75479999999999
20
-118.83800000000001
10
-345.75479999999999
20
-113.03800000000001
10
-346.55560000000003
20
-113.03800000000001
10
-346.55559999999991
20
-109.93899999999999
0
LWPOLYLINE
5
270
100
AcDbEntity
8
0
100
AcDbPolyline
90
20
70
1
43
0.0
10
-259.65499999999997
20
-101.79400000000001
10
-259.65499999999997
20
-100.995
10
-256.55599999999998
20
-100.995
10
-256.55599999999998
20
-101.79400000000001
10
-255.55500000000001
20
-101.79400000000001
10
-255.55500000000001
20
-115.794
10
-256.55599999999998
20
-115.794
10
-256.55599999999998
20
-116.59399999999999
10
-259.65499999999997
20
-116.59399999999999
10
-259.65499999999997
20
-115.794
10
-265.45499999999998
20
-115.794
10
-265.45500000000004
20
-116.59399999999999
10
-268.55600000000004
20
-116.59399999999999
10
-268.55600000000004
20
-115.794
10
-269.55500000000001
20
-115.794
10
-269.55500000000001
20
-101.79400000000001
10
-268.55600000000004
20
-101.79400000000001
10
-268.55600000000004
20
-100.995
10
-265.45499999999998
20
-100.995
10
-265.45500000000004
20
-101.79400000000001
0
ENDSEC
0
SECTION
2
OBJECTS
0
DICTIONARY
5
C
100
AcDbDictionary
3
ACAD_GROUP
350
D
3
ACAD_MLINESTYLE
350
17
0
DICTIONARY
5
D
100
AcDbDictionary
0
DICTIONARY
5
1A
330
C
100
AcDbDictionary
0
DICTIONARY
5
17
100
AcDbDictionary
0
ENDSEC
0
EOF
