0
SECTION
2
HEADER
9
$INSUNITS
70
4
9
$ACADVER
1
AC1014
9
$HANDSEED
5
FFFF
0
ENDSEC
0
SECTION
2
TABLES
0
TABLE
2
VPORT
5
8
100
AcDbSymbolTable
0
ENDTAB
0
TABLE
2
LTYPE
5
5
100
AcDbSymbolTable
0
LTYPE
5
14
100
AcDbSymbolTableRecord
100
AcDbLinetypeTableRecord
2
BYBLOCK
70
0
0
LTYPE
5
15
100
AcDbSymbolTableRecord
100
AcDbLinetypeTableRecord
2
BYLAYER
70
0
0
ENDTAB
0
TABLE
2
LAYER
5
2
100
AcDbSymbolTable
70
2
0
LAYER
5
50
100
AcDbSymbolTableRecord
100
AcDbLayerTableRecord
2
0
70
0
6
CONTINUOUS
0
ENDTAB
0
TABLE
2
STYLE
5
3
100
AcDbSymbolTable
70
1
0
STYLE
5
11
100
AcDbSymbolTableRecord
100
AcDbTextStyleTableRecord
2
STANDARD
70
0
0
ENDTAB
0
TABLE
2
VIEW
5
6
100
AcDbSymbolTable
70
0
0
ENDTAB
0
TABLE
2
UCS
5
7
100
AcDbSymbolTable
70
0
0
ENDTAB
0
TABLE
2
APPID
5
9
100
AcDbSymbolTable
70
2
0
APPID
5
12
100
AcDbSymbolTableRecord
100
AcDbRegAppTableRecord
2
ACAD
70
0
0
ENDTAB
0
TABLE
2
DIMSTYLE
5
A
100
AcDbSymbolTable
70
1
0
ENDTAB
0
TABLE
2
BLOCK_RECORD
5
1
100
AcDbSymbolTable
70
1
0
BLOCK_RECORD
5
1F
100
AcDbSymbolTableRecord
100
AcDbBlockTableRecord
2
*MODEL_SPACE
0
BLOCK_RECORD
5
1B
100
AcDbSymbolTableRecord
100
AcDbBlockTableRecord
2
*PAPER_SPACE
0
ENDTAB
0
ENDSEC
0
SECTION
2
BLOCKS
0
BLOCK
5
20
100
AcDbEntity
100
AcDbBlockBegin
2
*MODEL_SPACE
0
ENDBLK
5
21
100
AcDbEntity
100
AcDbBlockEnd
0
BLOCK
5
1C
100
AcDbEntity
100
AcDbBlockBegin
2
*PAPER_SPACE
0
ENDBLK
5
1D
100
AcDbEntity
100
AcDbBlockEnd
0
ENDSEC
0
SECTION
2
ENTITIES
0
CIRCLE
5
100
100
AcDbEntity
8
0
100
AcDbCircle
10
-160.96107484818148
20
-2.86011763891947
30
0
40
1.2999999999999901
210
0
220
-0
230
1
0
CIRCLE
5
101
100
AcDbEntity
8
0
100
AcDbCircle
10
-149.97
20
-120.90649999999629
30
0
40
1.3000000000000078
210
0
220
-0
230
1
0
CIRCLE
5
102
100
AcDbEntity
8
0
100
AcDbCircle
10
-80.294700000000006
20
-47.644900000000007
30
0
40
1.3000000000000078
210
0
220
-0
230
1
0
CIRCLE
5
103
100
AcDbEntity
8
0
100
AcDbCircle
10
-3.0941600000000022
20
-148.89600000000002
30
0
40
1.3
210
0
220
-0
230
1
0
CIRCLE
5
104
100
AcDbEntity
8
0
100
AcDbCircle
10
-149.97
20
-99.906500000000037
30
0
40
1.3000000000000078
210
0
220
-0
230
1
0
CIRCLE
5
105
100
AcDbEntity
8
0
100
AcDbCircle
10
-189.86720686540252
20
-57.406499999999987
30
0
40
1.2999999999999901
210
0
220
-0
230
1
0
CIRCLE
5
106
100
AcDbEntity
8
0
100
AcDbCircle
10
-115.89400000000001
20
-60.930999999999997
30
0
40
1.3000000000000078
210
0
220
-0
230
1
0
CIRCLE
5
107
100
AcDbEntity
8
0
100
AcDbCircle
10
-148.97
20
-148.89600000000004
30
0
40
1.3000000000000078
210
0
220
-0
230
1
0
CIRCLE
5
108
100
AcDbEntity
8
0
100
AcDbCircle
10
-10.082266094067279
20
-60.015666094067264
30
0
40
1.2999999999999989
210
0
220
-0
230
1
0
CIRCLE
5
109
100
AcDbEntity
8
0
100
AcDbCircle
10
-80.294700000000006
20
-150.89600000000004
30
0
40
1.3000000000000078
210
0
220
-0
230
1
0
CIRCLE
5
110
100
AcDbEntity
8
0
100
AcDbCircle
10
-141.91800000000001
20
-62.430999999999997
30
0
40
1.3000000000000078
210
0
220
-0
230
1
0
CIRCLE
5
111
100
AcDbEntity
8
0
100
AcDbCircle
10
-190.86720686540249
20
-133.89600000000007
30
0
40
1.2999999999999901
210
0
220
-0
230
1
0
LWPOLYLINE
5
112
100
AcDbEntity
8
0
100
AcDbPolyline
90
29
70
1
43
0.0
10
-70.770399999999995
20
-49.262200000000007
10
-51.719000000000001
20
-49.262200000000007
10
-51.719000000000001
20
-44.501199999999997
10
-13.617800000000004
20
-44.501199999999997
10
-13.617800000000004
20
-63.551200000000001
10
-4.0941600000000022
20
-63.551200000000001
10
-4.0941600000000022
20
-139.75200000000001
10
-51.719000000000001
20
-139.75200000000001
10
-51.719000000000001
20
-144.51499999999999
10
-70.768999999999991
20
-144.51499999999999
10
-70.768999999999991
20
-146.89600000000002
10
-89.820400000000006
20
-146.89600000000002
10
-89.820400000000006
20
-144.51499999999999
10
-108.87
20
-144.51499999999999
10
-108.87
20
-142.13299999999998
10
-146.97
20
-142.13299999999998
10
-146.97
20
-65.930999999999997
10
-127.92200000000001
20
-65.930999999999997
10
-144.417
20
-56.408500000000004
10
-153.94200000000001
20
-72.906499999999994
10
-186.93900000000002
20
-53.8551
10
-158.363
20
-4.3601199999999984
10
-108.86800000000001
20
-32.936500000000002
10
-127.91800000000001
20
-65.930999999999997
10
-108.87
20
-65.930999999999997
10
-108.87
20
-49.262200000000007
10
-89.819000000000017
20
-49.262200000000007
10
-89.819000000000017
20
-51.644900000000007
10
-70.770399999999995
20
-51.644900000000007
0
LWPOLYLINE
5
113
100
AcDbEntity
8
0
100
AcDbPolyline
90
6
70
1
43
0.0
10
-193.86720686540252
20
-53.855099999999979
10
-193.86720686540247
20
-156.89600000000007
10
0.90583999999999776
20
-156.89600000000002
10
0.90583999999999776
20
-39.501199999999997
10
-87.4978889744756
20
-39.501200000000004
10
-161.05912901168085
20
2.9700384801372115
0
CIRCLE
5
114
100
AcDbEntity
8
0
100
AcDbCircle
10
-160.96107484818148
20
-2.86011763891947
30
0
40
1.2999999999999901
210
0
220
0
230
1
0
CIRCLE
5
115
100
AcDbEntity
8
0
100
AcDbCircle
10
-149.97
20
-120.90649999999629
30
0
40
1.3000000000000078
210
0
220
0
230
1
0
CIRCLE
5
116
100
AcDbEntity
8
0
100
AcDbCircle
10
-80.294700000000006
20
-47.644900000000007
30
0
40
1.3000000000000078
210
0
220
0
230
1
0
CIRCLE
5
117
100
AcDbEntity
8
0
100
AcDbCircle
10
-3.0941600000000022
20
-148.89600000000002
30
0
40
1.3
210
0
220
0
230
1
0
CIRCLE
5
118
100
AcDbEntity
8
0
100
AcDbCircle
10
-149.97
20
-99.906500000000037
30
0
40
1.3000000000000078
210
0
220
0
230
1
0
CIRCLE
5
119
100
AcDbEntity
8
0
100
AcDbCircle
10
-189.86720686540252
20
-57.406499999999987
30
0
40
1.2999999999999901
210
0
220
0
230
1
0
CIRCLE
5
120
100
AcDbEntity
8
0
100
AcDbCircle
10
-115.89400000000001
20
-60.930999999999997
30
0
40
1.3000000000000078
210
0
220
0
230
1
0
CIRCLE
5
121
100
AcDbEntity
8
0
100
AcDbCircle
10
-148.97
20
-148.89600000000004
30
0
40
1.3000000000000078
210
0
220
0
230
1
0
CIRCLE
5
122
100
AcDbEntity
8
0
100
AcDbCircle
10
-10.082266094067279
20
-60.015666094067264
30
0
40
1.2999999999999989
210
0
220
0
230
1
0
CIRCLE
5
123
100
AcDbEntity
8
0
100
AcDbCircle
10
-80.294700000000006
20
-150.89600000000004
30
0
40
1.3000000000000078
210
0
220
0
230
1
0
CIRCLE
5
124
100
AcDbEntity
8
0
100
AcDbCircle
10
-141.91800000000001
20
-62.430999999999997
30
0
40
1.3000000000000078
210
0
220
0
230
1
0
CIRCLE
5
125
100
AcDbEntity
8
0
100
AcDbCircle
10
-190.86720686540249
20
-133.89600000000007
30
0
40
1.2999999999999901
210
0
220
0
230
1
0
LWPOLYLINE
5
126
100
AcDbEntity
8
0
100
AcDbPolyline
90
29
70
1
43
0.0
10
-70.770399999999995
20
-51.644900000000007
10
-70.770399999999995
20
-49.262200000000007
10
-51.719000000000001
20
-49.262200000000007
10
-51.719000000000001
20
-44.501199999999997
10
-13.617800000000003
20
-44.501199999999997
10
-13.617800000000003
20
-63.551200000000001
10
-4.0941600000000005
20
-63.551200000000001
10
-4.0941600000000022
20
-139.75200000000001
10
-51.719000000000001
20
-139.75200000000001
10
-51.719000000000001
20
-144.51499999999999
10
-70.768999999999991
20
-144.51499999999999
10
-70.768999999999991
20
-146.89600000000002
10
-89.820400000000006
20
-146.89600000000002
10
-89.820400000000006
20
-144.51499999999999
10
-108.87
20
-144.51499999999999
10
-108.87
20
-142.13299999999998
10
-146.97
20
-142.13299999999998
10
-146.97
20
-65.930999999999997
10
-127.92200000000001
20
-65.930999999999997
10
-144.417
20
-56.408500000000004
10
-153.94200000000001
20
-72.906499999999994
10
-186.93900000000002
20
-53.8551
10
-158.363
20
-4.360119999999994
10
-108.86800000000001
20
-32.936500000000002
10
-127.91800000000001
20
-65.930999999999997
10
-108.87
20
-65.930999999999997
10
-108.87
20
-49.262200000000007
10
-89.819000000000017
20
-49.262200000000007
10
-89.819000000000017
20
-51.644900000000007
0
LWPOLYLINE
5
127
100
AcDbEntity
8
0
100
AcDbPolyline
90
6
70
1
43
0.0
10
-193.86720686540252
20
-53.855099999999979
10
-161.05912901168085
20
2.9700384801372071
10
-87.497888974475615
20
-39.501200000000019
10
0.90583999999999776
20
-39.501199999999997
10
0.90583999999999876
20
-156.89600000000002
10
-193.86720686540247
20
-156.89600000000007
0
CIRCLE
5
128
100
AcDbEntity
8
0
100
AcDbCircle
10
-239.03892515181852
20
-2.86011763891947
30
0
40
1.2999999999999901
210
0
220
-0
230
1
0
CIRCLE
5
129
100
AcDbEntity
8
0
100
AcDbCircle
10
-250.03
20
-120.90649999999629
30
0
40
1.3000000000000078
210
0
220
-0
230
1
0
CIRCLE
5
130
100
AcDbEntity
8
0
100
AcDbCircle
10
-319.70530000000002
20
-47.644900000000007
30
0
40
1.3000000000000078
210
0
220
-0
230
1
0
CIRCLE
5
131
100
AcDbEntity
8
0
100
AcDbCircle
10
-396.90584000000001
20
-148.89600000000002
30
0
40
1.3
210
0
220
-0
230
1
0
CIRCLE
5
132
100
AcDbEntity
8
0
100
AcDbCircle
10
-250.03
20
-99.906500000000037
30
0
40
1.3000000000000078
210
0
220
-0
230
1
0
CIRCLE
5
133
100
AcDbEntity
8
0
100
AcDbCircle
10
-210.13279313459748
20
-57.406499999999987
30
0
40
1.2999999999999901
210
0
220
-0
230
1
0
CIRCLE
5
134
100
AcDbEntity
8
0
100
AcDbCircle
10
-284.10599999999999
20
-60.930999999999997
30
0
40
1.3000000000000078
210
0
220
-0
230
1
0
CIRCLE
5
135
100
AcDbEntity
8
0
100
AcDbCircle
10
-251.03000000000003
20
-148.89600000000004
30
0
40
1.3000000000000078
210
0
220
-0
230
1
0
CIRCLE
5
136
100
AcDbEntity
8
0
100
AcDbCircle
10
-389.91773390593272
20
-60.015666094067264
30
0
40
1.2999999999999989
210
0
220
-0
230
1
0
CIRCLE
5
137
100
AcDbEntity
8
0
100
AcDbCircle
10
-319.70530000000002
20
-150.89600000000004
30
0
40
1.3000000000000078
210
0
220
-0
230
1
0
CIRCLE
5
138
100
AcDbEntity
8
0
100
AcDbCircle
10
-258.08199999999999
20
-62.430999999999997
30
0
40
1.3000000000000078
210
0
220
-0
230
1
0
CIRCLE
5
139
100
AcDbEntity
8
0
100
AcDbCircle
10
-209.13279313459751
20
-133.89600000000007
30
0
40
1.2999999999999901
210
0
220
-0
230
1
0
LWPOLYLINE
5
140
100
AcDbEntity
8
0
100
AcDbPolyline
90
29
70
1
43
0.0
10
-329.2296
20
-51.644900000000007
10
-329.2296
20
-49.262200000000007
10
-348.28100000000001
20
-49.262200000000007
10
-348.28100000000001
20
-44.501199999999997
10
-386.38219999999995
20
-44.501199999999997
10
-386.38219999999995
20
-63.551200000000001
10
-395.90584000000001
20
-63.551200000000001
10
-395.90584000000001
20
-139.75200000000001
10
-348.28100000000001
20
-139.75200000000001
10
-348.28100000000001
20
-144.51499999999999
10
-329.23099999999999
20
-144.51499999999999
10
-329.23099999999999
20
-146.89600000000002
10
-310.17959999999999
20
-146.89600000000002
10
-310.17959999999999
20
-144.51499999999999
10
-291.13
20
-144.51499999999999
10
-291.13
20
-142.13299999999998
10
-253.02999999999997
20
-142.13299999999998
10
-253.02999999999997
20
-65.930999999999997
10
-272.07799999999997
20
-65.930999999999997
10
-255.583
20
-56.408500000000004
10
-246.05799999999999
20
-72.906499999999994
10
-213.06099999999998
20
-53.8551
10
-241.637
20
-4.360119999999994
10
-291.13199999999995
20
-32.936500000000002
10
-272.08199999999999
20
-65.930999999999997
10
-291.13
20
-65.930999999999997
10
-291.13
20
-49.262200000000007
10
-310.18099999999998
20
-49.262200000000007
10
-310.18100000000004
20
-51.644900000000007
0
LWPOLYLINE
5
141
100
AcDbEntity
8
0
100
AcDbPolyline
90
6
70
1
43
0.0
10
-206.13279313459748
20
-53.855099999999979
10
-238.94087098831915
20
2.9700384801372071
10
-312.50211102552436
20
-39.501200000000019
10
-400.90584000000001
20
-39.501199999999997
10
-400.90584000000001
20
-156.89600000000002
10
-206.13279313459753
20
-156.89600000000007
0
ENDSEC
0
SECTION
2
OBJECTS
0
DICTIONARY
5
C
100
AcDbDictionary
3
ACAD_GROUP
350
D
3
ACAD_MLINESTYLE
350
17
0
DICTIONARY
5
D
100
AcDbDictionary
0
DICTIONARY
5
1A
330
C
100
AcDbDictionary
0
DICTIONARY
5
17
100
AcDbDictionary
0
ENDSEC
0
EOF
